<?xml version="1.0" encoding="utf-8"?>
<!-- Generator: Adobe Illustrator 26.5.0, SVG Export Plug-In . SVG Version: 6.00 Build 0)  -->
<svg version="1.1" xmlns="http://www.w3.org/2000/svg" xmlns:xlink="http://www.w3.org/1999/xlink" x="0px" y="0px"
	 viewBox="0 0 611.22 225.39" style="enable-background:new 0 0 611.22 225.39;" xml:space="preserve">
<style type="text/css">
	.st0{fill:#751B74;}
</style>
<g id="EN">
	<g id="Layer_3">
	</g>
</g>
<g id="AR">
	<rect x="226.86" y="40.25" class="st0" width="21.99" height="110.71"/>
	<path class="st0" d="M320.68,58.7c-3.06-5.4-7.78-9.83-14.15-13.28c-6.38-3.45-14.19-5.17-23.43-5.17h-26v3.91h19.55
		c4.42,0,8.69,1.34,12.79,4c4.1,2.67,7.42,6.38,9.96,11.13c2.54,4.75,3.81,9.99,3.81,15.72c0,5.86-1.27,11.2-3.81,16.01
		c-2.54,4.82-5.86,8.59-9.96,11.32c-4.1,2.73-8.36,4.1-12.79,4.1H257.1v3.9h26c9.37,0,17.21-1.76,23.53-5.27
		c6.31-3.52,11-7.97,14.06-13.37c3.06-5.4,4.59-10.9,4.59-16.5C325.26,69.6,323.73,64.1,320.68,58.7z"/>
	<polygon class="st0" points="434.53,45.17 400.32,107.42 362.84,40.25 338.82,40.25 338.82,150.96 342.73,150.96 342.73,49.04 
		390.56,137.49 434.53,55.12 	"/>
	<path class="st0" d="M465.48,41.48h-22.06v103.64c0,3.9,3.16,7.07,7.07,7.07h86.84v-3.9h-62.54c-5.14,0-9.31-4.17-9.31-9.31V41.48z
		"/>
	<polygon class="st0" points="581.32,40.25 542.47,109.96 506.25,40.25 483.5,40.25 483.5,142.36 487.41,142.36 487.41,49.04 
		535.24,138.76 581.32,50.21 581.32,149.69 603.38,149.69 603.38,40.25 	"/>
	<g>
		<g>
			<path class="st0" d="M145.03,54.71c-0.15,5.38-1.32,10.65-3.79,15.46c-2.86,5.61-7.33,9.76-11.71,14.13
				c-8.58,8.58-17.15,17.15-25.73,25.73V99.35c8.78-8.78,17.72-17.73,26.51-26.51c3.64-3.65,7.26-7.26,9.89-11.75
				c2.34-3.97,3.57-8.09,4.32-12.5c-0.16-1.02-0.38-2.04-0.64-3.05c-0.63-2.4-1.52-4.74-2.64-6.95
				c-9.1-17.96-31.54-27.28-49.9-17.58c-9.06,4.78-15.69,13.52-17.82,23.54c-0.14,0.63-0.24,1.27-0.33,1.91
				c0.34,2.14,0.9,4.25,1.63,6.29c1.74,4.84,4.58,9.1,8.14,12.78c6.61,6.84,14.14,14.28,20.83,21.03v10.97
				c-4.38-4.42-9.52-9.59-13.9-14.01c-5.95-6.01-12.11-11.6-15.08-19.79c-1.54-4.24-1.99-8.56-2.1-12.98
				c-0.01-0.35-0.1-0.74-0.12-1.09c-0.12-1.66-0.02-5.1,0.09-7.03c0.05-3.56,0.28-7.12,1.18-10.6
				c2.87-10.98,11.18-20.08,21.85-23.94c21.43-7.75,45.92,8.35,48.96,30.62C145.42,43.94,145.18,49.44,145.03,54.71z"/>
		</g>
		<g>
			<path class="st0" d="M72.72,171.78c0.15-5.38,1.32-10.65,3.79-15.46c2.86-5.61,7.33-9.76,11.71-14.13
				c8.58-8.58,17.15-17.15,25.73-25.73v10.97c-8.78,8.78-17.56,17.57-26.35,26.35c-3.64,3.65-7.42,7.13-10.05,11.62
				c-2.34,3.97-3.57,8.09-4.32,12.5c0.16,1.02,0.38,2.04,0.64,3.05c0.63,2.4,1.52,4.74,2.64,6.95c9.1,17.96,31.54,27.28,49.9,17.58
				c9.06-4.78,15.69-13.52,17.82-23.54c0.14-0.63,0.24-1.27,0.33-1.91c-0.34-2.14-0.9-4.25-1.63-6.29
				c-1.74-4.84-4.58-9.1-8.14-12.78c-6.61-6.84-14.14-14.28-20.83-21.03v-10.97c4.38,4.42,9.52,9.59,13.9,14.01
				c5.95,6.01,12.11,11.6,15.08,19.79c1.54,4.24,1.99,8.56,2.1,12.98c0.01,0.35,0.1,0.74,0.12,1.09c0.12,1.66,0.02,5.1-0.09,7.03
				c-0.05,3.56-0.28,7.12-1.18,10.6c-2.87,10.98-11.18,20.08-21.85,23.94c-21.43,7.75-45.92-8.35-48.96-30.62
				C72.33,182.56,72.56,177.05,72.72,171.78z"/>
		</g>
		<g>
			<path class="st0" d="M100.34,111.95V123c-3.83-3.83-7.18-7.18-11.02-11.01c-0.26-0.26-0.5-0.5-0.76-0.76
				c-4.61-4.61-9.23-9.23-13.84-13.84c-3.83-3.83-7.5-7.72-12.33-10.36c-9.34-5.13-20.83-5.64-30.6-1.42
				c-8.11,3.52-15.77,10.86-19.78,18.75c-1.28,2.52-2.25,5.21-2.89,7.97c-0.18,0.78-0.33,1.56-0.44,2.35
				c0.74,4.64,2.42,9.14,4.93,13.1c11.88,18.78,38.39,21.38,54.14,6.04c7.03-6.84,13.88-13.87,20.81-20.81l0.01,10.62
				c-4.44,4.44-9.13,9.13-13.57,13.57c-5.32,5.33-10.12,11.25-17.07,14.51c-21.14,9.9-46.64-4.16-49.43-27.37
				c-1.18-9.82-1.14-21.44,3.28-30.47c4.2-8.59,12.55-16.44,21.49-19.83c10.33-3.92,22.2-2.65,31.44,3.41
				c4.48,2.93,8.14,7.08,11.9,10.85c4.18,4.19,8.37,8.37,12.56,12.56c0.05,0.05,0.1,0.11,0.15,0.16
				C93.17,104.85,96.51,108.12,100.34,111.95z"/>
		</g>
		<g>
			<path class="st0" d="M115.53,114.12l0.11-10.97c3.83,3.83,7.36,7.39,11.19,11.22c0.26,0.26,0.5,0.5,0.76,0.76
				c4.61,4.61,9.23,9.23,13.84,13.84c3.83,3.83,7.5,7.72,12.33,10.36c9.34,5.13,20.83,5.64,30.6,1.42
				c8.11-3.52,15.77-10.86,19.78-18.75c1.28-2.52,2.25-5.21,2.89-7.97c0.18-0.78,0.33-1.56,0.44-2.35
				c-0.74-4.64-2.42-9.14-4.93-13.1C190.65,79.79,164,77.06,148.25,92.4c-7.03,6.84-13.72,13.74-20.65,20.68l-0.02-10.71
				c4.44-4.44,8.89-8.89,13.33-13.33c5.32-5.33,10.36-11.14,17.3-14.39c21.14-9.9,46.64,4.16,49.43,27.37
				c1.18,9.82,1.14,21.44-3.28,30.47c-4.2,8.59-12.55,16.44-21.49,19.83c-10.33,3.92-22.2,2.65-31.44-3.41
				c-4.48-2.93-8.14-7.08-11.9-10.85c-4.18-4.19-8.37-8.37-12.56-12.56c-0.05-0.05-0.1-0.11-0.15-0.16
				C122.99,121.51,119.36,117.95,115.53,114.12z"/>
		</g>
	</g>
	<g>
		<path class="st0" d="M239.11,183.56c0.75,0.41,1.12,0.95,1.12,1.64c0,0.18-0.03,0.38-0.1,0.63c-0.07,0.24-0.15,0.48-0.24,0.72
			c-0.1,0.23-0.19,0.44-0.27,0.63c-0.09,0.18-0.16,0.31-0.22,0.36c-0.29,0.33-0.67,0.65-1.15,0.95c-0.48,0.3-1.02,0.56-1.62,0.79
			c-0.6,0.22-1.26,0.4-1.97,0.53s-1.44,0.19-2.18,0.19c-1.44,0-2.6-0.19-3.5-0.58c-0.9-0.39-1.56-0.84-1.98-1.34
			c-0.38-0.49-0.65-1.07-0.8-1.75c-0.15-0.68-0.23-1.45-0.23-2.31c0-1.11,0.14-2.24,0.43-3.39c0.29-1.15,0.65-2.24,1.09-3.27
			l1.7,0.61c-0.33,0.97-0.58,1.9-0.75,2.79c-0.17,0.89-0.26,1.64-0.26,2.26c0,0.56,0.05,1.04,0.14,1.42
			c0.1,0.38,0.22,0.69,0.37,0.92c0.21,0.35,0.69,0.65,1.45,0.91c0.76,0.25,1.63,0.38,2.63,0.38c0.79,0,1.67-0.09,2.66-0.26
			c0.99-0.18,1.87-0.5,2.66-0.96c-0.27-0.37-0.78-0.74-1.52-1.11c-0.75-0.37-1.72-0.69-2.93-0.96l0.75-2.25
			c0.12-0.33,0.27-0.56,0.47-0.69c0.2-0.13,0.5-0.19,0.91-0.19h4.48v3.36H239.11z M231.41,195.68c-0.31-0.23-0.7-0.51-1.19-0.82
			s-0.95-0.58-1.39-0.82l1.41-2.51c0.52,0.21,1,0.47,1.46,0.76c0.46,0.29,0.85,0.6,1.18,0.93L231.41,195.68z M235.26,195.59
			c-0.31-0.25-0.71-0.53-1.21-0.83c-0.5-0.3-0.96-0.57-1.38-0.8l1.38-2.51c0.54,0.21,1.03,0.47,1.49,0.76s0.85,0.6,1.18,0.93
			L235.26,195.59z"/>
		<path class="st0" d="M253.5,183.29c-0.56-0.18-1.06-0.43-1.52-0.76c-0.46-0.33-0.9-0.74-1.32-1.24s-0.87-1.06-1.35-1.68
			c-0.15,0.53-0.38,1.03-0.67,1.5c-0.3,0.48-0.55,0.81-0.76,1.01c-0.34,0.31-0.8,0.56-1.36,0.74s-1.17,0.33-1.82,0.44
			c-0.65,0.11-1.32,0.17-2,0.2c-0.68,0.03-1.31,0.04-1.88,0.04h-0.57c-0.17,0-0.33-0.17-0.46-0.5c-0.13-0.33-0.2-0.72-0.2-1.17
			c0-0.47,0.07-0.87,0.2-1.2c0.13-0.33,0.29-0.5,0.46-0.5h0.75c0.42,0,0.91,0,1.46-0.01c0.55-0.01,1.13-0.04,1.72-0.1
			c0.59-0.06,1.17-0.14,1.74-0.25c0.56-0.11,1.06-0.26,1.48-0.45c-0.33-1.19-1.04-2.41-2.15-3.68c-1.11-1.27-2.63-2.6-4.57-4
			c0.04-0.62,0.1-1.18,0.17-1.68c0.08-0.5,0.2-0.93,0.36-1.3c0.16-0.37,0.38-0.68,0.66-0.93c0.28-0.25,0.64-0.45,1.08-0.58
			l8.82-2.72l-0.66,3.07l-7.87,2.48c0.69,0.51,1.4,1.1,2.14,1.78c0.74,0.68,1.45,1.38,2.14,2.09s1.34,1.41,1.94,2.09
			c0.6,0.68,1.13,1.28,1.59,1.81c0.42,0.49,0.8,0.89,1.13,1.2c0.33,0.31,0.67,0.56,1.01,0.73c0.33,0.17,0.68,0.3,1.05,0.36
			c0.36,0.07,0.78,0.1,1.24,0.1v3.36C254.7,183.56,254.05,183.47,253.5,183.29z"/>
		<path class="st0" d="M255.45,183.56c-0.17,0-0.33-0.17-0.46-0.5c-0.13-0.33-0.2-0.72-0.2-1.17c0-0.47,0.07-0.87,0.2-1.2
			c0.13-0.33,0.29-0.5,0.46-0.5h2.87v3.36H255.45z"/>
		<path class="st0" d="M255.45,183.56c-0.17,0-0.33-0.17-0.46-0.5c-0.13-0.33-0.2-0.72-0.2-1.17c0-0.47,0.07-0.87,0.2-1.2
			c0.13-0.33,0.29-0.5,0.46-0.5h2.87v3.36H255.45z"/>
		<path class="st0" d="M258.32,183.56c-0.17,0-0.33-0.17-0.46-0.5c-0.13-0.33-0.2-0.72-0.2-1.17c0-0.47,0.07-0.87,0.2-1.2
			c0.13-0.33,0.29-0.5,0.46-0.5h2.87v3.36H258.32z"/>
		<path class="st0" d="M261.2,183.56c-0.17,0-0.33-0.17-0.46-0.5c-0.13-0.33-0.2-0.72-0.2-1.17c0-0.47,0.07-0.87,0.2-1.2
			c0.13-0.33,0.29-0.5,0.46-0.5h2.87v3.36H261.2z"/>
		<path class="st0" d="M264.07,183.56c-0.17,0-0.33-0.17-0.46-0.5c-0.13-0.33-0.2-0.72-0.2-1.17c0-0.47,0.07-0.87,0.2-1.2
			c0.13-0.33,0.29-0.5,0.46-0.5h2.87v3.36H264.07z"/>
		<path class="st0" d="M266.94,183.56c-0.17,0-0.33-0.17-0.46-0.5c-0.13-0.33-0.2-0.72-0.2-1.17c0-0.47,0.07-0.87,0.2-1.2
			c0.13-0.33,0.29-0.5,0.46-0.5h2.87v3.36H266.94z"/>
		<path class="st0" d="M279.15,183.56c-0.9,0-1.72-0.13-2.46-0.38s-1.31-0.78-1.71-1.58c-0.27,0.47-0.48,0.77-0.63,0.91
			c-0.36,0.33-0.97,0.59-1.81,0.77s-1.75,0.28-2.73,0.28c-0.17,0-0.33-0.17-0.46-0.5c-0.13-0.33-0.2-0.72-0.2-1.17
			c0-0.47,0.07-0.87,0.2-1.2c0.13-0.33,0.29-0.5,0.46-0.5h0.37c0.48,0,1.06-0.03,1.75-0.1c0.69-0.07,1.32-0.24,1.9-0.51
			c-0.04-0.56-0.09-1.24-0.14-2.02c-0.06-0.78-0.13-1.52-0.23-2.22l2.41-1.31l0.4,3.88c0.06,0.53,0.18,0.94,0.36,1.24
			c0.18,0.3,0.42,0.53,0.7,0.69s0.61,0.25,0.96,0.29s0.73,0.06,1.13,0.06v3.36H279.15z M274.87,189.78
			c-0.29-0.25-0.68-0.53-1.18-0.83c-0.5-0.3-0.97-0.58-1.41-0.83l1.41-2.51c0.54,0.21,1.03,0.47,1.49,0.77
			c0.46,0.3,0.85,0.61,1.18,0.92L274.87,189.78z"/>
		<path class="st0" d="M301.58,183.56c-0.98,0-1.82-0.12-2.54-0.35c-0.72-0.23-1.29-0.69-1.71-1.37c-0.27,0.53-0.49,0.85-0.66,0.96
			c-0.25,0.21-0.61,0.39-1.08,0.54c-0.47,0.15-1.01,0.22-1.62,0.22c-0.56,0-1.12-0.1-1.68-0.31c-0.57-0.2-1.06-0.62-1.48-1.24
			c-0.36,0.56-0.81,0.96-1.34,1.2c-0.53,0.23-1.18,0.35-1.97,0.35c-0.84,0-1.54-0.14-2.08-0.42s-0.97-0.75-1.28-1.42
			c-0.44,0.7-0.98,1.18-1.61,1.45c-0.63,0.26-1.39,0.39-2.27,0.39h-0.83c-0.17,0-0.33-0.17-0.46-0.5c-0.13-0.33-0.2-0.72-0.2-1.17
			c0-0.47,0.07-0.87,0.2-1.2c0.13-0.33,0.29-0.5,0.46-0.5h1.06c0.92,0,1.59-0.16,2.03-0.48s0.71-0.76,0.85-1.33l0.66-2.69l1.98,0.12
			c-0.08,0.58-0.14,1.1-0.2,1.55c-0.06,0.45-0.09,0.82-0.09,1.11c0,0.56,0.15,0.99,0.46,1.28c0.31,0.29,0.79,0.44,1.46,0.44
			c0.82,0,1.4-0.14,1.72-0.41c0.33-0.27,0.54-0.65,0.63-1.14l0.49-2.89l1.98,0.06l-0.23,3.47c0.36,0.6,1.01,0.91,1.95,0.91
			c0.34,0,0.67-0.02,0.98-0.06s0.59-0.11,0.86-0.2c-0.04-0.64-0.1-1.39-0.17-2.25c-0.08-0.86-0.15-1.65-0.23-2.39l2.41-1.31
			l0.4,3.94c0.06,0.53,0.18,0.94,0.36,1.24c0.18,0.3,0.41,0.53,0.69,0.69c0.28,0.16,0.59,0.25,0.95,0.29s0.73,0.06,1.13,0.06V183.56
			z M289.63,173.45c-0.31-0.25-0.7-0.53-1.19-0.83c-0.49-0.3-0.95-0.57-1.39-0.8l1.41-2.51c0.52,0.21,1.01,0.47,1.46,0.76
			c0.46,0.29,0.85,0.6,1.18,0.93L289.63,173.45z M290.98,169.57c-0.33-0.23-0.7-0.49-1.12-0.76s-0.83-0.53-1.23-0.76
			c0.23-0.39,0.43-0.76,0.62-1.11c0.18-0.35,0.39-0.72,0.62-1.11c0.5,0.21,0.95,0.45,1.36,0.72c0.41,0.26,0.76,0.55,1.05,0.86
			L290.98,169.57z M293.48,173.37c-0.31-0.25-0.71-0.53-1.21-0.83c-0.5-0.3-0.96-0.57-1.38-0.8l1.38-2.51
			c0.54,0.21,1.03,0.47,1.49,0.76c0.46,0.29,0.85,0.6,1.18,0.93L293.48,173.37z"/>
		<path class="st0" d="M300.92,181.89c0-0.47,0.07-0.87,0.2-1.2c0.13-0.33,0.29-0.5,0.46-0.5c0.57,0,1.17-0.05,1.79-0.16
			s1.15-0.27,1.59-0.48c-0.02-1.07-0.05-2.14-0.09-3.21c-0.04-1.07-0.08-2.07-0.13-3.01c-0.05-0.93-0.1-1.78-0.14-2.53
			c-0.05-0.75-0.1-1.35-0.16-1.8c-0.06-0.51-0.12-0.99-0.2-1.45c-0.08-0.46-0.17-0.84-0.29-1.15l2.15-2.16
			c0.25,0.41,0.42,0.93,0.52,1.56s0.16,1.31,0.2,2.03c0.04,0.76,0.07,1.6,0.1,2.51c0.03,0.92,0.05,1.86,0.07,2.83
			c0.02,0.97,0.03,1.95,0.04,2.92c0.01,0.97,0.01,1.89,0.01,2.74c0,0.27-0.05,0.58-0.14,0.93c-0.1,0.35-0.21,0.7-0.36,1.05
			s-0.3,0.68-0.47,0.98c-0.17,0.3-0.34,0.52-0.49,0.66c-0.21,0.18-0.47,0.33-0.78,0.47c-0.31,0.14-0.65,0.25-1.02,0.34
			c-0.37,0.09-0.75,0.16-1.13,0.2c-0.38,0.05-0.75,0.07-1.09,0.07c-0.17,0-0.33-0.17-0.46-0.5
			C300.98,182.73,300.92,182.34,300.92,181.89z"/>
		<path class="st0" d="M309.85,169.02c-0.06-0.51-0.12-0.99-0.2-1.45c-0.08-0.46-0.17-0.84-0.29-1.15l2.18-2.16
			c0.23,0.41,0.41,1.04,0.53,1.88c0.12,0.85,0.22,1.81,0.29,2.88c0.07,1.07,0.11,2.19,0.13,3.34c0.02,1.16,0.03,2.25,0.03,3.29
			c0,0.93,0,1.76,0,2.47c0,0.71,0,1.36-0.01,1.96c-0.01,0.59-0.04,1.17-0.09,1.72s-0.13,1.13-0.24,1.74l-1.75,0.44
			c-0.02-1.6-0.05-3.17-0.09-4.73c-0.04-1.56-0.08-3.01-0.13-4.35c-0.05-1.34-0.11-2.53-0.17-3.55S309.91,169.54,309.85,169.02z"/>
		<path class="st0" d="M335.13,183.56v0.03c0,0.29-0.04,0.63-0.13,1.02c-0.09,0.39-0.2,0.77-0.33,1.15
			c-0.13,0.38-0.29,0.73-0.46,1.04c-0.17,0.31-0.34,0.54-0.52,0.7c-0.27,0.27-0.66,0.54-1.18,0.82c-0.52,0.27-1.14,0.52-1.87,0.73
			c-0.73,0.21-1.54,0.39-2.44,0.54c-0.9,0.15-1.86,0.22-2.87,0.22c-1.51,0-2.73-0.2-3.65-0.6s-1.59-0.85-2.01-1.36
			c-0.38-0.49-0.65-1.07-0.8-1.74c-0.15-0.67-0.23-1.44-0.23-2.29c0-1.11,0.14-2.24,0.43-3.39c0.29-1.15,0.65-2.25,1.09-3.3
			l1.7,0.64c-0.33,0.95-0.58,1.87-0.75,2.76c-0.17,0.89-0.26,1.64-0.26,2.26c0,0.56,0.05,1.04,0.14,1.43
			c0.1,0.39,0.22,0.7,0.37,0.93c0.21,0.33,0.7,0.62,1.46,0.88c0.77,0.25,1.69,0.38,2.79,0.38c1.49,0,2.9-0.13,4.21-0.39
			c1.31-0.26,2.38-0.6,3.2-1.01c0-0.27-0.01-0.54-0.03-0.82c-0.02-0.27-0.04-0.54-0.06-0.79c-0.67,0.06-1.28,0.1-1.84,0.12
			c-0.56,0.02-1.14,0.03-1.75,0.03c-1.07,0-1.9-0.24-2.47-0.72c-0.58-0.48-0.86-1.17-0.86-2.09c0-0.43,0.08-0.98,0.23-1.65
			c0.15-0.67,0.34-1.39,0.57-2.15c0.27-0.93,0.67-1.69,1.21-2.26c0.54-0.57,1.15-0.86,1.84-0.86c0.67,0,1.28,0.17,1.82,0.51
			s1.02,0.8,1.44,1.37c0.41,0.57,0.76,1.25,1.05,2.02s0.51,1.59,0.66,2.47h1.64v3.36H335.13z M328.4,172.26
			c-0.31-0.25-0.7-0.53-1.19-0.83c-0.49-0.3-0.95-0.57-1.39-0.8l1.41-2.51c0.52,0.21,1,0.47,1.46,0.76c0.46,0.29,0.85,0.6,1.18,0.93
			L328.4,172.26z M329.7,180.32c0.42,0,0.83,0,1.22,0s0.89-0.01,1.51-0.03c-0.27-1.05-0.64-1.89-1.11-2.53
			c-0.47-0.63-1.01-0.95-1.62-0.95c-0.38,0-0.67,0.1-0.88,0.29c-0.2,0.19-0.36,0.45-0.47,0.76c-0.1,0.23-0.18,0.49-0.26,0.77
			c-0.08,0.28-0.12,0.53-0.12,0.74c0,0.27,0.12,0.5,0.37,0.67C328.6,180.23,329.05,180.32,329.7,180.32z M332.25,172.17
			c-0.31-0.25-0.71-0.53-1.21-0.83s-0.96-0.57-1.38-0.8l1.38-2.51c0.54,0.21,1.03,0.47,1.49,0.76c0.46,0.29,0.85,0.6,1.18,0.93
			L332.25,172.17z"/>
		<path class="st0" d="M336.48,183.56c-0.17,0-0.33-0.17-0.46-0.5c-0.13-0.33-0.2-0.72-0.2-1.17c0-0.47,0.07-0.87,0.2-1.2
			c0.13-0.33,0.29-0.5,0.46-0.5h2.87v3.36H336.48z"/>
		<path class="st0" d="M336.48,183.56c-0.17,0-0.33-0.17-0.46-0.5c-0.13-0.33-0.2-0.72-0.2-1.17c0-0.47,0.07-0.87,0.2-1.2
			c0.13-0.33,0.29-0.5,0.46-0.5h2.87v3.36H336.48z"/>
		<path class="st0" d="M339.35,183.56c-0.17,0-0.33-0.17-0.46-0.5c-0.13-0.33-0.2-0.72-0.2-1.17c0-0.47,0.07-0.87,0.2-1.2
			c0.13-0.33,0.29-0.5,0.46-0.5h2.87v3.36H339.35z"/>
		<path class="st0" d="M342.22,183.56c-0.17,0-0.33-0.17-0.46-0.5c-0.13-0.33-0.2-0.72-0.2-1.17c0-0.47,0.07-0.87,0.2-1.2
			c0.13-0.33,0.29-0.5,0.46-0.5h2.87v3.36H342.22z"/>
		<path class="st0" d="M345.41,189.84c-0.31-0.23-0.7-0.51-1.19-0.82s-0.95-0.58-1.39-0.82l1.41-2.51c0.52,0.21,1,0.47,1.46,0.76
			c0.46,0.29,0.85,0.6,1.18,0.93L345.41,189.84z M344.43,181.89c0-0.47,0.07-0.87,0.2-1.2c0.13-0.33,0.29-0.5,0.46-0.5h0.37
			c0.19,0,0.45-0.01,0.76-0.03c0.32-0.02,0.66-0.05,1.03-0.1c0.37-0.05,0.75-0.12,1.13-0.22c0.38-0.1,0.74-0.22,1.06-0.38
			c-0.13-0.91-0.36-1.85-0.68-2.8c-0.32-0.95-0.64-1.73-0.96-2.34l2.27-1.96c0.25,0.51,0.47,1.04,0.66,1.59s0.35,1.11,0.49,1.66
			s0.23,1.09,0.3,1.61c0.07,0.52,0.1,0.99,0.1,1.42c0,0.25-0.06,0.56-0.19,0.93c-0.12,0.37-0.27,0.73-0.45,1.09
			c-0.17,0.36-0.35,0.69-0.55,0.99s-0.35,0.52-0.49,0.66c-0.23,0.21-0.52,0.39-0.86,0.54s-0.73,0.27-1.16,0.38
			c-0.43,0.11-0.89,0.19-1.36,0.23c-0.48,0.05-0.96,0.07-1.44,0.07h-0.06c-0.17,0-0.33-0.17-0.46-0.5
			C344.5,182.73,344.43,182.34,344.43,181.89z M349.26,189.75c-0.31-0.25-0.71-0.53-1.21-0.83s-0.96-0.57-1.38-0.8l1.38-2.51
			c0.54,0.21,1.03,0.47,1.49,0.76c0.46,0.29,0.85,0.6,1.18,0.93L349.26,189.75z"/>
		<path class="st0" d="M363.13,183.56c-0.15,0.99-0.46,1.9-0.92,2.72c-0.46,0.82-0.98,1.53-1.57,2.13c-0.58,0.6-1.19,1.07-1.81,1.4
			s-1.17,0.5-1.65,0.5c-0.12,0-0.31-0.04-0.59-0.13c-0.28-0.09-0.59-0.19-0.93-0.32c-0.34-0.13-0.72-0.28-1.12-0.45
			s-0.79-0.35-1.15-0.53l0.57-1.93c0.46,0.1,0.96,0.17,1.49,0.22c0.54,0.05,0.97,0.08,1.29,0.1c0.38-0.02,0.8-0.14,1.25-0.36
			c0.45-0.22,0.89-0.51,1.32-0.86c0.43-0.35,0.82-0.75,1.18-1.2c0.35-0.45,0.64-0.92,0.85-1.43c-0.63,0.06-1.24,0.1-1.82,0.12
			c-0.58,0.02-1.18,0.03-1.79,0.03c-1.05,0-1.87-0.24-2.46-0.72s-0.88-1.17-0.88-2.09c0-0.43,0.05-0.89,0.14-1.37
			c0.1-0.49,0.22-1,0.37-1.55c0.31-1.23,0.75-2.2,1.32-2.92c0.58-0.72,1.27-1.08,2.1-1.08c0.71,0,1.33,0.19,1.87,0.57
			c0.54,0.38,1,0.88,1.38,1.49c0.38,0.61,0.7,1.29,0.95,2.04s0.43,1.5,0.55,2.26h1.64v3.36H363.13z M359.37,180.32
			c0.23,0,0.47,0,0.72,0s0.53-0.01,0.83-0.03c-0.33-0.99-0.73-1.82-1.21-2.48c-0.48-0.66-1.02-0.99-1.64-0.99
			c-0.31,0-0.57,0.09-0.79,0.28c-0.22,0.19-0.4,0.41-0.53,0.69c-0.13,0.27-0.23,0.55-0.29,0.85c-0.06,0.29-0.09,0.55-0.09,0.76
			c0,0.27,0.12,0.5,0.37,0.67c0.25,0.18,0.69,0.26,1.32,0.26H359.37z"/>
		<path class="st0" d="M364.71,183.56c-0.17,0-0.33-0.17-0.46-0.5c-0.13-0.33-0.2-0.72-0.2-1.17c0-0.47,0.07-0.87,0.2-1.2
			c0.13-0.33,0.29-0.5,0.46-0.5h2.87v3.36H364.71z"/>
		<path class="st0" d="M367.58,183.56c-0.17,0-0.33-0.17-0.46-0.5c-0.13-0.33-0.2-0.72-0.2-1.17c0-0.47,0.07-0.87,0.2-1.2
			c0.13-0.33,0.29-0.5,0.46-0.5h2.87v3.36H367.58z"/>
		<path class="st0" d="M370.45,183.56c-0.17,0-0.33-0.17-0.46-0.5c-0.13-0.33-0.2-0.72-0.2-1.17c0-0.47,0.07-0.87,0.2-1.2
			c0.13-0.33,0.29-0.5,0.46-0.5h2.87v3.36H370.45z"/>
		<path class="st0" d="M392.93,183.21c-0.72-0.23-1.29-0.69-1.71-1.37c-0.27,0.53-0.49,0.85-0.66,0.96
			c-0.25,0.21-0.61,0.39-1.08,0.54c-0.47,0.15-1.01,0.22-1.62,0.22c-0.56,0-1.12-0.1-1.68-0.31c-0.57-0.2-1.06-0.62-1.48-1.24
			c-0.36,0.56-0.81,0.96-1.34,1.2c-0.53,0.23-1.18,0.35-1.97,0.35c-0.84,0-1.54-0.14-2.08-0.42s-0.97-0.75-1.28-1.42
			c-0.44,0.7-0.98,1.18-1.61,1.45c-0.63,0.26-1.39,0.39-2.27,0.39h-0.83c-0.17,0-0.33-0.17-0.46-0.5c-0.13-0.33-0.2-0.72-0.2-1.17
			c0-0.47,0.07-0.87,0.2-1.2c0.13-0.33,0.29-0.5,0.46-0.5h1.06c0.92,0,1.59-0.16,2.03-0.48s0.71-0.76,0.85-1.33l0.66-2.69l1.98,0.12
			c-0.08,0.58-0.14,1.1-0.2,1.55c-0.06,0.45-0.09,0.82-0.09,1.11c0,0.56,0.15,0.99,0.46,1.28c0.31,0.29,0.79,0.44,1.46,0.44
			c0.82,0,1.4-0.14,1.72-0.41c0.33-0.27,0.54-0.65,0.63-1.14l0.49-2.89l1.98,0.06l-0.23,3.47c0.36,0.6,1.01,0.91,1.95,0.91
			c0.34,0,0.67-0.02,0.98-0.06s0.59-0.11,0.86-0.2c-0.04-0.64-0.1-1.39-0.17-2.25c-0.08-0.86-0.15-1.65-0.23-2.39l2.41-1.31
			l0.4,3.94c0.06,0.53,0.18,0.94,0.36,1.24c0.18,0.3,0.41,0.53,0.69,0.69c0.28,0.16,0.59,0.25,0.95,0.29s0.73,0.06,1.13,0.06v3.36
			C394.49,183.56,393.65,183.44,392.93,183.21z"/>
		<path class="st0" d="M404.8,183.56c-0.9,0-1.72-0.13-2.46-0.38s-1.31-0.78-1.71-1.58c-0.27,0.47-0.48,0.77-0.63,0.91
			c-0.36,0.33-0.97,0.59-1.81,0.77s-1.75,0.28-2.73,0.28c-0.17,0-0.33-0.17-0.46-0.5c-0.13-0.33-0.2-0.72-0.2-1.17
			c0-0.47,0.07-0.87,0.2-1.2c0.13-0.33,0.29-0.5,0.46-0.5h0.37c0.48,0,1.06-0.03,1.75-0.1c0.69-0.07,1.32-0.24,1.9-0.51
			c-0.04-0.56-0.09-1.24-0.14-2.02c-0.06-0.78-0.13-1.52-0.23-2.22l2.41-1.31l0.4,3.88c0.06,0.53,0.18,0.94,0.36,1.24
			c0.18,0.3,0.42,0.53,0.7,0.69s0.61,0.25,0.96,0.29s0.73,0.06,1.13,0.06v3.36H404.8z M398.6,172.49c-0.31-0.25-0.7-0.53-1.19-0.83
			s-0.95-0.57-1.39-0.8l1.41-2.51c0.52,0.21,1,0.47,1.46,0.76s0.85,0.6,1.18,0.93L398.6,172.49z M402.45,172.4
			c-0.31-0.25-0.71-0.53-1.21-0.83c-0.5-0.3-0.96-0.57-1.38-0.8l1.38-2.51c0.54,0.21,1.03,0.47,1.49,0.76s0.85,0.6,1.18,0.93
			L402.45,172.4z"/>
		<path class="st0" d="M413.05,183.56c-0.88,0-1.6-0.15-2.15-0.45c-0.56-0.3-0.99-0.72-1.29-1.24c-0.15,0.23-0.32,0.44-0.49,0.61
			c-0.21,0.18-0.47,0.33-0.78,0.47c-0.31,0.14-0.64,0.25-0.99,0.34c-0.35,0.09-0.72,0.16-1.11,0.2c-0.38,0.05-0.75,0.07-1.09,0.07
			h-0.06c-0.17,0-0.33-0.17-0.46-0.5c-0.13-0.33-0.2-0.72-0.2-1.17c0-0.47,0.07-0.87,0.2-1.2c0.13-0.33,0.29-0.5,0.46-0.5
			c0.57,0,1.17-0.05,1.79-0.16s1.15-0.27,1.59-0.48c-0.02-1.07-0.05-2.14-0.09-3.21c-0.04-1.07-0.08-2.07-0.13-3.01
			c-0.05-0.93-0.1-1.78-0.14-2.53c-0.05-0.75-0.1-1.35-0.16-1.8c-0.06-0.51-0.12-0.99-0.2-1.45c-0.08-0.46-0.17-0.84-0.29-1.15
			l2.15-2.16c0.25,0.41,0.42,0.93,0.52,1.56s0.16,1.31,0.2,2.03c0.04,0.72,0.07,1.5,0.1,2.35c0.03,0.85,0.05,1.71,0.07,2.6
			c0.02,0.89,0.03,1.77,0.04,2.64c0.01,0.88,0.01,1.7,0.01,2.48c0,0.68,0.21,1.23,0.62,1.65c0.41,0.42,1.15,0.63,2.23,0.63v3.36
			H413.05z"/>
		<path class="st0" d="M412.76,181.89c0-0.47,0.07-0.87,0.2-1.2c0.13-0.33,0.29-0.5,0.46-0.5c0.57,0,1.17-0.05,1.79-0.16
			s1.15-0.27,1.59-0.48c-0.02-1.07-0.05-2.14-0.09-3.21c-0.04-1.07-0.08-2.07-0.13-3.01c-0.05-0.93-0.1-1.78-0.14-2.53
			c-0.05-0.75-0.1-1.35-0.16-1.8c-0.06-0.51-0.12-0.99-0.2-1.45c-0.08-0.46-0.17-0.84-0.29-1.15l2.15-2.16
			c0.25,0.41,0.42,0.93,0.52,1.56s0.16,1.31,0.2,2.03c0.04,0.76,0.07,1.6,0.1,2.51c0.03,0.92,0.05,1.86,0.07,2.83
			c0.02,0.97,0.03,1.95,0.04,2.92c0.01,0.97,0.01,1.89,0.01,2.74c0,0.27-0.05,0.58-0.14,0.93c-0.1,0.35-0.21,0.7-0.36,1.05
			s-0.3,0.68-0.47,0.98c-0.17,0.3-0.34,0.52-0.49,0.66c-0.21,0.18-0.47,0.33-0.78,0.47c-0.31,0.14-0.65,0.25-1.02,0.34
			c-0.37,0.09-0.75,0.16-1.13,0.2c-0.38,0.05-0.75,0.07-1.09,0.07c-0.17,0-0.33-0.17-0.46-0.5
			C412.83,182.73,412.76,182.34,412.76,181.89z"/>
		<path class="st0" d="M434.27,183.56c-0.36,0-0.7-0.04-1.02-0.13c-0.32-0.09-0.61-0.24-0.88-0.45c-0.12,1.09-0.41,2.09-0.89,2.99
			s-1.03,1.68-1.67,2.32c-0.63,0.64-1.28,1.14-1.95,1.49c-0.67,0.35-1.25,0.53-1.75,0.53c-0.11,0-0.31-0.04-0.59-0.13
			c-0.28-0.09-0.59-0.19-0.93-0.32c-0.34-0.13-0.71-0.28-1.11-0.45c-0.39-0.18-0.77-0.35-1.13-0.53l0.54-1.93
			c0.48,0.1,0.98,0.17,1.51,0.22c0.53,0.05,0.95,0.08,1.28,0.1c0.38-0.02,0.82-0.17,1.31-0.45s0.96-0.63,1.41-1.05
			c0.45-0.42,0.85-0.89,1.19-1.42c0.34-0.53,0.57-1.04,0.69-1.55c-0.06-0.39-0.15-0.82-0.29-1.3s-0.29-0.96-0.46-1.46
			c-0.17-0.5-0.36-0.99-0.56-1.49c-0.2-0.5-0.4-0.97-0.59-1.42l2.24-1.87l1.15,3.18c0.25,0.72,0.57,1.19,0.95,1.4
			c0.38,0.21,0.92,0.33,1.61,0.35h0.03v3.36H434.27z M429.96,173.98c-0.31-0.25-0.7-0.53-1.19-0.83s-0.95-0.58-1.39-0.83l1.41-2.51
			c0.54,0.21,1.03,0.47,1.49,0.77s0.85,0.62,1.18,0.95L429.96,173.98z"/>
		<path class="st0" d="M441.51,172.37c0.25,0.51,0.47,1.04,0.66,1.59s0.35,1.11,0.49,1.66c0.13,0.55,0.23,1.09,0.3,1.61
			c0.07,0.52,0.1,0.99,0.1,1.42c0,0.25-0.06,0.56-0.19,0.93c-0.12,0.37-0.27,0.73-0.44,1.09c-0.17,0.36-0.35,0.69-0.55,0.99
			s-0.35,0.52-0.49,0.66c-0.23,0.21-0.52,0.39-0.88,0.54c-0.35,0.15-0.75,0.27-1.18,0.38c-0.43,0.11-0.9,0.19-1.39,0.23
			c-0.5,0.05-1,0.07-1.49,0.07h-2.1c-0.17,0-0.33-0.17-0.46-0.5c-0.13-0.33-0.2-0.72-0.2-1.17c0-0.47,0.07-0.87,0.2-1.2
			c0.13-0.33,0.29-0.5,0.46-0.5h2.3c0.25,0,0.55-0.01,0.9-0.03s0.73-0.05,1.12-0.1c0.39-0.05,0.78-0.12,1.16-0.2
			c0.38-0.09,0.73-0.21,1.03-0.37c-0.13-0.91-0.36-1.85-0.67-2.82c-0.32-0.96-0.64-1.75-0.96-2.35L441.51,172.37z M436.31,189.84
			c-0.31-0.23-0.7-0.51-1.19-0.82s-0.95-0.58-1.39-0.82l1.41-2.51c0.52,0.21,1,0.47,1.46,0.76s0.85,0.6,1.18,0.93L436.31,189.84z
			 M440.16,189.75c-0.31-0.25-0.71-0.53-1.21-0.83c-0.5-0.3-0.96-0.57-1.38-0.8l1.38-2.51c0.54,0.21,1.03,0.47,1.49,0.76
			c0.46,0.29,0.85,0.6,1.18,0.93L440.16,189.75z"/>
		<path class="st0" d="M445.67,190.3c-0.25,0-0.6-0.1-1.05-0.31s-1.06-0.48-1.82-0.83l0.66-1.9c0.21,0.04,0.48,0.07,0.8,0.09
			c0.33,0.02,0.58,0.04,0.78,0.06c0.34-0.04,0.73-0.2,1.15-0.5c0.42-0.29,0.83-0.66,1.22-1.1c0.39-0.44,0.74-0.92,1.03-1.45
			c0.3-0.53,0.48-1.05,0.56-1.58c-0.06-0.39-0.15-0.82-0.29-1.3s-0.29-0.96-0.46-1.46c-0.17-0.5-0.36-0.99-0.56-1.49
			c-0.2-0.5-0.4-0.97-0.59-1.42l2.24-1.87c0.69,1.69,1.16,3.1,1.42,4.21c0.26,1.11,0.39,2.01,0.39,2.69c0,1.21-0.2,2.31-0.59,3.31
			c-0.39,1-0.87,1.86-1.44,2.57c-0.56,0.71-1.16,1.27-1.79,1.66C446.71,190.1,446.15,190.3,445.67,190.3z"/>
		<path class="st0" d="M468.11,183.56c-1.13,0-2.03-0.22-2.7-0.66c-0.67-0.44-1.16-1.09-1.46-1.97c-0.23,0.47-0.46,0.79-0.69,0.96
			c-0.48,0.37-1.43,0.55-2.84,0.55c-1.09,0-1.93-0.22-2.53-0.67c-0.59-0.45-0.89-1.17-0.89-2.16c0-0.66,0.08-1.26,0.24-1.8
			c0.16-0.54,0.38-0.96,0.65-1.27c0.33-0.43,0.89-0.95,1.68-1.56c0.79-0.61,1.73-1.41,2.8-2.38l-0.34-1.93l2.15-1.9l1.61,9.58
			c0.06,0.29,0.13,0.55,0.22,0.79c0.09,0.23,0.22,0.43,0.42,0.58s0.45,0.27,0.76,0.35c0.32,0.08,0.72,0.12,1.22,0.12v3.36H468.11z
			 M459.12,178.16c0,0.43,0.14,0.7,0.43,0.82c0.29,0.12,0.74,0.17,1.35,0.17c0.92,0,1.79-0.08,2.61-0.23l-0.69-3.85
			c-1.07,0.92-1.92,1.6-2.53,2.04C459.68,177.55,459.29,177.9,459.12,178.16z"/>
		<path class="st0" d="M468.4,183.56c-0.17,0-0.33-0.17-0.46-0.5c-0.13-0.33-0.2-0.72-0.2-1.17c0-0.47,0.07-0.87,0.2-1.2
			c0.13-0.33,0.29-0.5,0.46-0.5h2.87v3.36H468.4z"/>
		<path class="st0" d="M468.39,183.56c-0.17,0-0.33-0.17-0.46-0.5c-0.13-0.33-0.2-0.72-0.2-1.17c0-0.47,0.07-0.87,0.2-1.2
			c0.13-0.33,0.29-0.5,0.46-0.5h2.87v3.36H468.39z"/>
		<path class="st0" d="M471.27,183.56c-0.17,0-0.33-0.17-0.46-0.5c-0.13-0.33-0.2-0.72-0.2-1.17c0-0.47,0.07-0.87,0.2-1.2
			c0.13-0.33,0.29-0.5,0.46-0.5h2.87v3.36H471.27z"/>
		<path class="st0" d="M474.14,183.56c-0.17,0-0.33-0.17-0.46-0.5c-0.13-0.33-0.2-0.72-0.2-1.17c0-0.47,0.07-0.87,0.2-1.2
			c0.13-0.33,0.29-0.5,0.46-0.5h2.87v3.36H474.14z"/>
		<path class="st0" d="M477.01,183.56c-0.17,0-0.33-0.17-0.46-0.5c-0.13-0.33-0.2-0.72-0.2-1.17c0-0.47,0.07-0.87,0.2-1.2
			c0.13-0.33,0.29-0.5,0.46-0.5h2.87v3.36H477.01z"/>
		<path class="st0" d="M479.88,183.56c-0.17,0-0.33-0.17-0.46-0.5c-0.13-0.33-0.2-0.72-0.2-1.17c0-0.47,0.07-0.87,0.2-1.2
			c0.13-0.33,0.29-0.5,0.46-0.5h2.87v3.36H479.88z"/>
		<path class="st0" d="M482.76,183.56c-0.17,0-0.33-0.17-0.46-0.5c-0.13-0.33-0.2-0.72-0.2-1.17c0-0.47,0.07-0.87,0.2-1.2
			c0.13-0.33,0.29-0.5,0.46-0.5h2.87v3.36H482.76z"/>
		<path class="st0" d="M494.96,183.56c-0.9,0-1.72-0.13-2.46-0.38s-1.31-0.78-1.71-1.58c-0.27,0.47-0.48,0.77-0.63,0.91
			c-0.36,0.33-0.97,0.59-1.81,0.77s-1.75,0.28-2.73,0.28c-0.17,0-0.33-0.17-0.46-0.5c-0.13-0.33-0.2-0.72-0.2-1.17
			c0-0.47,0.07-0.87,0.2-1.2c0.13-0.33,0.29-0.5,0.46-0.5H486c0.48,0,1.06-0.03,1.75-0.1c0.69-0.07,1.32-0.24,1.9-0.51
			c-0.04-0.56-0.09-1.24-0.14-2.02c-0.06-0.78-0.13-1.52-0.23-2.22l2.41-1.31l0.4,3.88c0.06,0.53,0.18,0.94,0.36,1.24
			c0.18,0.3,0.42,0.53,0.7,0.69s0.61,0.25,0.96,0.29s0.73,0.06,1.13,0.06v3.36H494.96z M490.68,189.78
			c-0.29-0.25-0.68-0.53-1.18-0.83c-0.5-0.3-0.97-0.58-1.41-0.83l1.41-2.51c0.54,0.21,1.03,0.47,1.49,0.77
			c0.46,0.3,0.85,0.61,1.18,0.92L490.68,189.78z"/>
		<path class="st0" d="M504.58,183.56c-0.9,0-1.72-0.13-2.46-0.38s-1.31-0.78-1.71-1.58c-0.27,0.47-0.48,0.77-0.63,0.91
			c-0.36,0.33-0.97,0.59-1.81,0.77s-1.75,0.28-2.73,0.28c-0.17,0-0.33-0.17-0.46-0.5c-0.13-0.33-0.2-0.72-0.2-1.17
			c0-0.47,0.07-0.87,0.2-1.2c0.13-0.33,0.29-0.5,0.46-0.5h0.37c0.48,0,1.06-0.03,1.75-0.1c0.69-0.07,1.32-0.24,1.9-0.51
			c-0.04-0.56-0.09-1.24-0.14-2.02c-0.06-0.78-0.13-1.52-0.23-2.22l2.41-1.31l0.4,3.88c0.06,0.53,0.18,0.94,0.36,1.24
			c0.18,0.3,0.42,0.53,0.7,0.69s0.61,0.25,0.96,0.29s0.73,0.06,1.13,0.06v3.36H504.58z M500.3,172.49c-0.31-0.25-0.7-0.53-1.19-0.83
			s-0.95-0.58-1.39-0.83l1.41-2.51c0.54,0.21,1.03,0.47,1.49,0.77c0.46,0.3,0.85,0.62,1.18,0.95L500.3,172.49z"/>
		<path class="st0" d="M504.21,181.89c0-0.47,0.07-0.87,0.2-1.2c0.13-0.33,0.29-0.5,0.46-0.5h0.37c0.19,0,0.45-0.01,0.76-0.03
			c0.32-0.02,0.66-0.05,1.03-0.1c0.37-0.05,0.75-0.12,1.13-0.22c0.38-0.1,0.74-0.22,1.06-0.38c-0.13-0.91-0.36-1.85-0.68-2.8
			c-0.32-0.95-0.64-1.73-0.96-2.34l2.27-1.96c0.25,0.51,0.47,1.04,0.66,1.59s0.35,1.11,0.49,1.66s0.23,1.09,0.3,1.61
			c0.07,0.52,0.1,0.99,0.1,1.42c0,0.25-0.06,0.56-0.19,0.93c-0.12,0.37-0.27,0.73-0.45,1.09c-0.17,0.36-0.35,0.69-0.55,0.99
			s-0.35,0.52-0.49,0.66c-0.23,0.21-0.52,0.39-0.86,0.54s-0.73,0.27-1.16,0.38c-0.43,0.11-0.89,0.19-1.36,0.23
			c-0.48,0.05-0.96,0.07-1.44,0.07h-0.06c-0.17,0-0.33-0.17-0.46-0.5C504.28,182.73,504.21,182.34,504.21,181.89z M507.11,189.78
			c-0.29-0.25-0.68-0.53-1.18-0.83c-0.5-0.3-0.97-0.58-1.41-0.83l1.41-2.51c0.54,0.21,1.03,0.47,1.49,0.77
			c0.46,0.3,0.85,0.61,1.18,0.92L507.11,189.78z"/>
		<path class="st0" d="M529.51,183.5c-0.38-0.04-0.76-0.13-1.12-0.26c-0.36-0.14-0.71-0.33-1.03-0.58
			c-0.33-0.25-0.62-0.58-0.89-0.99c-0.21,0.54-0.78,1.03-1.71,1.45c-0.93,0.42-2.14,0.63-3.63,0.63c-0.88,0-1.58-0.07-2.11-0.22
			c-0.53-0.15-0.93-0.35-1.22-0.63c-0.29-0.27-0.47-0.6-0.56-0.98c-0.09-0.38-0.13-0.79-0.13-1.24c0-0.51,0.03-1.05,0.1-1.62
			c0.07-0.57,0.15-1.08,0.24-1.53l1.61,0.29c-0.06,0.41-0.09,0.81-0.09,1.2c0,0.19,0.01,0.38,0.03,0.54
			c0.02,0.17,0.11,0.31,0.26,0.42s0.4,0.21,0.75,0.28c0.34,0.07,0.85,0.1,1.52,0.1c0.54,0,1.16-0.04,1.87-0.13
			c0.71-0.09,1.46-0.29,2.27-0.6c-0.33-1.28-0.71-2.56-1.16-3.84c-0.45-1.27-0.93-2.47-1.45-3.58l2.15-1.99
			c0.25,0.53,0.49,1.12,0.73,1.78c0.24,0.66,0.46,1.35,0.66,2.06c0.2,0.71,0.39,1.42,0.57,2.12c0.18,0.7,0.35,1.36,0.5,1.99
			c0.19,0.74,0.53,1.27,1.01,1.58s1.14,0.47,1.98,0.47v3.36C530.28,183.56,529.9,183.54,529.51,183.5z"/>
		<path class="st0" d="M530.98,189.84c-0.31-0.23-0.7-0.51-1.19-0.82s-0.95-0.58-1.39-0.82l1.41-2.51c0.52,0.21,1,0.47,1.46,0.76
			c0.46,0.29,0.85,0.6,1.18,0.93L530.98,189.84z M530,181.89c0-0.47,0.07-0.87,0.2-1.2c0.13-0.33,0.29-0.5,0.46-0.5h0.37
			c0.19,0,0.45-0.01,0.76-0.03c0.32-0.02,0.66-0.05,1.03-0.1c0.37-0.05,0.75-0.12,1.13-0.22c0.38-0.1,0.74-0.22,1.06-0.38
			c-0.13-0.91-0.36-1.85-0.68-2.8c-0.32-0.95-0.64-1.73-0.96-2.34l2.27-1.96c0.25,0.51,0.47,1.04,0.66,1.59s0.35,1.11,0.49,1.66
			s0.23,1.09,0.3,1.61c0.07,0.52,0.1,0.99,0.1,1.42c0,0.25-0.06,0.56-0.19,0.93c-0.12,0.37-0.27,0.73-0.45,1.09
			c-0.17,0.36-0.35,0.69-0.55,0.99s-0.35,0.52-0.49,0.66c-0.23,0.21-0.52,0.39-0.86,0.54s-0.73,0.27-1.16,0.38
			c-0.43,0.11-0.89,0.19-1.36,0.23c-0.48,0.05-0.96,0.07-1.44,0.07h-0.06c-0.17,0-0.33-0.17-0.46-0.5
			C530.07,182.73,530,182.34,530,181.89z M534.83,189.75c-0.31-0.25-0.71-0.53-1.21-0.83s-0.96-0.57-1.38-0.8l1.38-2.51
			c0.54,0.21,1.03,0.47,1.49,0.76c0.46,0.29,0.85,0.6,1.18,0.93L534.83,189.75z"/>
		<path class="st0" d="M540.31,190.3c-0.25,0-0.6-0.1-1.05-0.31s-1.06-0.48-1.82-0.83l0.66-1.9c0.21,0.04,0.48,0.07,0.8,0.09
			c0.33,0.02,0.58,0.04,0.78,0.06c0.34-0.04,0.73-0.2,1.15-0.5c0.42-0.29,0.83-0.66,1.22-1.1c0.39-0.44,0.74-0.92,1.03-1.45
			c0.3-0.53,0.48-1.05,0.56-1.58c-0.06-0.39-0.15-0.82-0.29-1.3s-0.29-0.96-0.46-1.46c-0.17-0.5-0.36-0.99-0.56-1.49
			c-0.2-0.5-0.4-0.97-0.59-1.42l2.24-1.87c0.69,1.69,1.16,3.1,1.42,4.21c0.26,1.11,0.39,2.01,0.39,2.69c0,1.21-0.2,2.31-0.59,3.31
			c-0.39,1-0.87,1.86-1.44,2.57c-0.56,0.71-1.16,1.27-1.79,1.66C541.35,190.1,540.79,190.3,540.31,190.3z"/>
		<path class="st0" d="M548.27,169.02c-0.06-0.51-0.12-0.99-0.2-1.45c-0.08-0.46-0.17-0.84-0.29-1.15l2.18-2.16
			c0.23,0.41,0.41,1.04,0.53,1.88c0.12,0.85,0.22,1.81,0.29,2.88c0.07,1.07,0.11,2.19,0.13,3.34c0.02,1.16,0.03,2.25,0.03,3.29
			c0,0.93,0,1.76,0,2.47c0,0.71,0,1.36-0.01,1.96c-0.01,0.59-0.04,1.17-0.09,1.72s-0.13,1.13-0.24,1.74l-1.75,0.44
			c-0.02-1.6-0.05-3.17-0.09-4.73c-0.04-1.56-0.08-3.01-0.13-4.35c-0.05-1.34-0.11-2.53-0.17-3.55S548.33,169.54,548.27,169.02z"/>
		<path class="st0" d="M557.89,173.83c0.88,0,1.63,0.29,2.25,0.86c0.62,0.57,1.13,1.29,1.52,2.13s0.68,1.76,0.86,2.73
			c0.18,0.97,0.27,1.87,0.27,2.69c0,1.17-0.22,2.24-0.65,3.23c-0.43,0.98-0.96,1.83-1.58,2.54c-0.62,0.71-1.28,1.27-1.98,1.68
			c-0.7,0.41-1.32,0.61-1.85,0.61c-0.12,0-0.31-0.04-0.59-0.13c-0.28-0.09-0.59-0.19-0.93-0.32c-0.34-0.13-0.72-0.28-1.12-0.45
			s-0.79-0.35-1.15-0.53l0.57-1.93c0.46,0.1,0.96,0.17,1.49,0.22c0.54,0.05,0.97,0.08,1.29,0.1c0.4-0.02,0.85-0.16,1.33-0.41
			c0.49-0.25,0.96-0.57,1.41-0.96c0.45-0.39,0.85-0.83,1.21-1.33c0.35-0.5,0.62-1.01,0.79-1.53c0-0.02-0.01-0.04-0.01-0.06
			c-0.01-0.02-0.01-0.05-0.01-0.09c-0.5,0.21-1.07,0.38-1.71,0.5s-1.32,0.18-2.02,0.18c-1.05,0-1.87-0.24-2.46-0.72
			s-0.88-1.17-0.88-2.09c0-0.43,0.05-0.89,0.14-1.37c0.1-0.49,0.22-1,0.37-1.55c0.31-1.23,0.75-2.2,1.32-2.92
			C556.37,174.19,557.07,173.83,557.89,173.83z M557.63,180.32c0.4,0,0.85-0.02,1.33-0.07c0.49-0.05,0.96-0.12,1.42-0.22
			c-0.33-0.93-0.72-1.7-1.19-2.31c-0.47-0.6-0.99-0.91-1.57-0.91c-0.31,0-0.57,0.09-0.79,0.28c-0.22,0.19-0.4,0.41-0.53,0.69
			c-0.13,0.27-0.23,0.55-0.29,0.85c-0.06,0.29-0.09,0.55-0.09,0.76c0,0.27,0.12,0.5,0.37,0.67
			C556.56,180.23,557,180.32,557.63,180.32z"/>
		<path class="st0" d="M572.65,183.56c-0.36,0-0.7-0.04-1.02-0.12c-0.32-0.08-0.61-0.22-0.88-0.44c-0.1,1.07-0.34,2.05-0.75,2.95
			c-0.4,0.9-0.88,1.66-1.42,2.31c-0.55,0.64-1.11,1.14-1.7,1.5c-0.58,0.36-1.11,0.54-1.57,0.54c-0.25,0-0.6-0.1-1.05-0.31
			s-1.06-0.48-1.82-0.83l0.66-1.9c0.21,0.04,0.48,0.07,0.8,0.09c0.33,0.02,0.58,0.04,0.78,0.06c0.34-0.04,0.73-0.2,1.15-0.5
			c0.42-0.29,0.83-0.66,1.22-1.1c0.39-0.44,0.74-0.92,1.03-1.45c0.3-0.53,0.48-1.05,0.56-1.58c-0.06-0.39-0.15-0.82-0.29-1.3
			s-0.29-0.96-0.46-1.46c-0.17-0.5-0.36-0.99-0.56-1.49c-0.2-0.5-0.4-0.97-0.59-1.42l2.24-1.87l1.15,3.18
			c0.25,0.72,0.56,1.19,0.93,1.4c0.37,0.21,0.91,0.33,1.59,0.35h0.06v3.36H572.65z"/>
		<path class="st0" d="M572.97,183.56c-0.17,0-0.33-0.17-0.46-0.5c-0.13-0.33-0.2-0.72-0.2-1.17c0-0.47,0.07-0.87,0.2-1.2
			c0.13-0.33,0.29-0.5,0.46-0.5h2.87v3.36H572.97z"/>
		<path class="st0" d="M575.84,183.56c-0.17,0-0.33-0.17-0.46-0.5c-0.13-0.33-0.2-0.72-0.2-1.17c0-0.47,0.07-0.87,0.2-1.2
			c0.13-0.33,0.29-0.5,0.46-0.5h2.87v3.36H575.84z"/>
		<path class="st0" d="M578.72,183.56c-0.17,0-0.33-0.17-0.46-0.5c-0.13-0.33-0.2-0.72-0.2-1.17c0-0.47,0.07-0.87,0.2-1.2
			c0.13-0.33,0.29-0.5,0.46-0.5h2.87v3.36H578.72z"/>
		<path class="st0" d="M581.59,183.56c-0.17,0-0.33-0.17-0.46-0.5c-0.13-0.33-0.2-0.72-0.2-1.17c0-0.47,0.07-0.87,0.2-1.2
			c0.13-0.33,0.29-0.5,0.46-0.5h2.87v3.36H581.59z"/>
		<path class="st0" d="M584.46,183.56c-0.17,0-0.33-0.17-0.46-0.5c-0.13-0.33-0.2-0.72-0.2-1.17c0-0.47,0.07-0.87,0.2-1.2
			c0.13-0.33,0.29-0.5,0.46-0.5h2.87v3.36H584.46z"/>
		<path class="st0" d="M587.33,183.56c-0.17,0-0.33-0.17-0.46-0.5c-0.13-0.33-0.2-0.72-0.2-1.17c0-0.47,0.07-0.87,0.2-1.2
			c0.13-0.33,0.29-0.5,0.46-0.5h2.87v3.36H587.33z"/>
		<path class="st0" d="M589.54,181.89c0-0.47,0.07-0.87,0.2-1.2c0.13-0.33,0.29-0.5,0.46-0.5h0.06c0.88,0,1.59-0.16,2.14-0.48
			s1.07-0.79,1.57-1.42c0.4-0.53,0.78-1.05,1.13-1.56c0.35-0.52,0.71-0.98,1.06-1.39c0.35-0.41,0.73-0.74,1.13-0.99
			c0.4-0.25,0.86-0.38,1.38-0.38c0.54,0,1.03,0.17,1.48,0.51c0.45,0.34,0.83,0.8,1.13,1.39c0.31,0.58,0.55,1.27,0.72,2.06
			c0.17,0.79,0.26,1.63,0.26,2.53c0,0.33-0.09,0.69-0.26,1.08c-0.17,0.39-0.38,0.75-0.63,1.1c-0.25,0.34-0.51,0.63-0.78,0.86
			c-0.27,0.23-0.49,0.35-0.66,0.35c-0.36,0-0.84-0.04-1.44-0.13c-0.59-0.09-1.19-0.23-1.78-0.44c-0.59-0.2-1.12-0.49-1.58-0.85
			c-0.46-0.36-0.74-0.81-0.83-1.36c-0.56,0.82-1.15,1.44-1.79,1.85c-0.64,0.42-1.39,0.63-2.25,0.63h-0.06
			c-0.17,0-0.33-0.17-0.46-0.5C589.61,182.73,589.54,182.34,589.54,181.89z M598.19,176.81c-0.25,0-0.5,0.1-0.76,0.29
			c-0.26,0.19-0.49,0.41-0.69,0.66c-0.2,0.24-0.37,0.49-0.5,0.73c-0.13,0.24-0.2,0.41-0.2,0.51c0,0.31,0.15,0.57,0.46,0.79
			c0.31,0.21,0.67,0.38,1.11,0.51c0.43,0.13,0.89,0.22,1.38,0.29c0.49,0.07,0.91,0.1,1.28,0.1c-0.04-0.43-0.11-0.87-0.2-1.33
			c-0.1-0.46-0.23-0.88-0.4-1.26c-0.17-0.38-0.38-0.69-0.62-0.93C598.8,176.93,598.51,176.81,598.19,176.81z"/>
	</g>
</g>
<g id="FA_00000183940414322404353030000011722459194607024781_">
</g>
</svg>
