<svg width="367" height="119" viewBox="0 0 367 119" fill="none" xmlns="http://www.w3.org/2000/svg">
<path d="M84.5398 26.9396C84.4474 29.9055 83.7264 32.8108 82.2042 35.4625C80.4417 38.5552 77.6871 40.843 74.9879 43.2521C69.7004 47.9821 64.4191 52.7066 59.1317 57.4367V51.5489C64.5424 46.7087 70.0517 41.7747 75.4686 36.9344C77.7117 34.9222 79.9426 32.9321 81.5633 30.4568C83.0054 28.2682 83.7634 25.9969 84.2255 23.5658C84.1269 23.0035 83.9914 22.4412 83.8311 21.8844C83.4429 20.5613 82.8944 19.2713 82.2042 18.0529C76.5963 8.15188 62.7676 3.01391 51.4532 8.36137C45.8699 10.9965 41.7841 15.8147 40.4715 21.3386C40.3852 21.6859 40.3236 22.0387 40.2681 22.3915C40.4777 23.5713 40.8228 24.7345 41.2726 25.8591C42.3449 28.5273 44.0951 30.8758 46.2889 32.9045C50.3624 36.6753 55.0028 40.7769 59.1255 44.498V50.5456C56.4263 48.1089 53.2588 45.2588 50.5596 42.8221C46.8929 39.5089 43.0968 36.4272 41.2665 31.9122C40.3174 29.5748 40.0401 27.1932 39.9723 24.7565C39.9662 24.5636 39.9107 24.3486 39.8984 24.1557C39.8244 23.2405 39.8861 21.3441 39.9539 20.2801C39.9847 18.3176 40.1264 16.355 40.681 14.4365C42.4497 8.38342 47.5708 3.36674 54.1462 1.23878C67.3525 -3.03367 82.4446 5.842 84.318 18.1191C84.7802 21.0023 84.6323 24.0344 84.5398 26.9396Z" fill="url(#paint0_linear_630_259)"/>
<path d="M39.9788 91.4791C40.0712 88.5132 40.7922 85.6079 42.3144 82.9562C44.0769 79.8635 46.8315 77.5757 49.5307 75.1666C54.8182 70.4366 60.0995 65.7121 65.3869 60.9821V67.0296C59.9762 71.8699 54.5655 76.7157 49.1486 81.556C46.9055 83.5682 44.576 85.4866 42.9553 87.9619C41.5132 90.1505 40.7553 92.4218 40.2931 94.8529C40.3917 95.4152 40.5272 95.9776 40.6875 96.5344C41.0757 97.8574 41.6242 99.1474 42.3144 100.366C47.9223 110.267 61.751 115.405 73.0654 110.057C78.6487 107.422 82.7345 102.604 84.0471 97.0801C84.1334 96.7328 84.195 96.38 84.2505 96.0272C84.0409 94.8474 83.6958 93.6842 83.246 92.5596C82.1737 89.8914 80.4235 87.5429 78.2296 85.5142C74.1562 81.7434 69.5158 77.6419 65.3931 73.9207V67.8731C68.0923 70.3098 71.2598 73.1599 73.959 75.5966C77.6257 78.9098 81.4219 81.9915 83.2521 86.5065C84.2012 88.8439 84.4785 91.2255 84.5463 93.6622C84.5524 93.8551 84.6079 94.0701 84.6202 94.2631C84.6942 95.1782 84.6325 97.0746 84.5647 98.1386C84.5339 100.101 84.3922 102.064 83.8376 103.982C82.0689 110.035 76.9478 115.052 70.3724 117.18C57.1661 121.452 42.074 112.577 40.2006 100.3C39.7384 97.4219 39.8802 94.3844 39.9788 91.4791Z" fill="url(#paint1_linear_630_259)"/>
<path d="M57.0013 58.4977V64.5894C54.641 62.4779 52.5766 60.6311 50.2101 58.5197C50.0499 58.3764 49.902 58.2441 49.7418 58.1007C46.9009 55.5593 44.0538 53.0124 41.2128 50.471C38.8526 48.3596 36.5909 46.2151 33.6144 44.7597C27.8586 41.9316 20.7778 41.6504 14.757 43.9769C9.75923 45.9174 5.03872 49.9638 2.56755 54.3134C1.77874 55.7027 1.18097 57.1856 0.786572 58.7072C0.675646 59.1372 0.583208 59.5672 0.51542 60.0027C0.971448 62.5606 2.00675 65.0414 3.55355 67.2245C10.8746 77.5776 27.2115 79.011 36.9175 70.5543C41.2498 66.7835 45.4711 62.9079 49.7418 59.082L49.7479 64.9367C47.0118 67.3844 44.1215 69.9699 41.3854 72.4176C38.1069 75.3559 35.1489 78.6195 30.8659 80.4167C17.8383 85.8744 2.12384 78.1234 0.404494 65.3281C-0.322685 59.9145 -0.298035 53.5086 2.42581 48.5305C5.01407 43.7949 10.1598 39.4673 15.6691 37.5985C22.035 35.4375 29.3499 36.1376 35.0441 39.4784C37.8049 41.0936 40.0604 43.3815 42.3776 45.4598C44.9535 47.7697 47.5356 50.0741 50.1177 52.3839C50.1485 52.4115 50.1793 52.4446 50.2101 52.4721C52.5827 54.5836 54.641 56.3863 57.0013 58.4977Z" fill="url(#paint2_linear_630_259)"/>
<path d="M66.3629 59.6908L66.4307 53.6432C68.791 55.7546 70.9663 57.7172 73.3266 59.8286C73.4868 59.972 73.6347 60.1043 73.7949 60.2476C76.6359 62.789 79.483 65.3359 82.3239 67.8774C84.6841 69.9888 86.9458 72.1333 89.9223 73.5887C95.6781 76.4168 102.759 76.6979 108.78 74.3715C113.777 72.431 118.498 68.3845 120.969 64.0349C121.758 62.6457 122.356 61.1627 122.75 59.6412C122.861 59.2112 122.954 58.7812 123.021 58.3457C122.565 55.7877 121.53 53.3069 119.983 51.1238C112.656 40.7652 96.2327 39.2602 86.5267 47.7169C82.1945 51.4877 78.0717 55.2916 73.8011 59.1175L73.7888 53.2132C76.5249 50.7655 79.2673 48.3123 82.0034 45.8646C85.2819 42.9263 88.3878 39.7233 92.6646 37.9316C105.692 32.4739 121.407 40.225 123.126 53.0203C123.853 58.4339 123.829 64.8398 121.105 69.8179C118.516 74.5534 113.371 78.881 107.861 80.7499C101.496 82.9109 94.1806 82.2108 88.4864 78.87C85.7256 77.2547 83.4701 74.9669 81.153 72.8885C78.5771 70.5787 75.995 68.2743 73.4129 65.9644C73.382 65.9368 73.3512 65.9038 73.3204 65.8762C70.9602 63.7648 68.7232 61.8022 66.3629 59.6908Z" fill="url(#paint3_linear_630_259)"/>
<path d="M148.522 21.9784H134.97V92.7763H148.522V21.9784Z" fill="url(#paint4_linear_630_259)"/>
<path d="M192.789 33.777C190.903 30.3237 187.994 27.4908 184.069 25.2846C180.137 23.0783 175.324 21.9784 169.63 21.9784H153.607V24.4788H165.655C168.379 24.4788 171.01 25.3357 173.537 27.0368C176.063 28.7442 178.109 31.1167 179.675 34.1543C181.24 37.1918 182.023 40.5428 182.023 44.207C182.023 47.9545 181.24 51.3693 179.675 54.4453C178.109 57.5276 176.063 59.9385 173.537 61.6843C171.01 63.4301 168.385 64.3062 165.655 64.3062H153.607V66.8002H169.63C175.404 66.8002 180.236 65.6747 184.13 63.4301C188.019 61.1791 190.909 58.3334 192.795 54.8801C194.681 51.4269 195.623 47.9097 195.623 44.3285C195.611 40.7474 194.668 37.2302 192.789 33.777Z" fill="url(#paint5_linear_630_259)"/>
<path d="M262.95 25.1247L241.868 64.9329L218.771 21.9784H203.969V92.7763H206.378V27.5995L235.853 84.1623L262.95 31.4876V25.1247Z" fill="url(#paint6_linear_630_259)"/>
<path d="M282.023 22.7651H268.428V89.0418C268.428 91.5358 270.376 93.563 272.785 93.563H326.301V91.069H287.76C284.593 91.069 282.023 88.4023 282.023 85.1153V22.7651Z" fill="url(#paint7_linear_630_259)"/>
<path d="M353.406 21.9784L329.464 66.5572L307.143 21.9784H293.124V87.2767H295.533V27.5995L325.009 84.9745L353.406 28.3477V91.9641H367V21.9784H353.406Z" fill="url(#paint8_linear_630_259)"/>
<path d="M134.997 102.368C136.007 102.195 136.969 102.106 137.868 102.106C139.656 102.106 140.956 102.444 141.769 103.129C142.583 103.807 142.99 104.887 142.99 106.365C142.99 107.829 142.583 108.903 141.769 109.594C140.956 110.285 139.668 110.624 137.912 110.624C137.714 110.624 137.517 110.617 137.32 110.604C137.117 110.592 136.901 110.585 136.667 110.585V114.473H135.003V102.368H134.997ZM138.164 109.197C139.286 109.197 140.087 108.98 140.568 108.552C141.048 108.123 141.289 107.394 141.289 106.365C141.289 105.354 141.054 104.632 140.58 104.203C140.105 103.775 139.31 103.557 138.189 103.557C137.936 103.557 137.677 103.564 137.406 103.583C137.135 103.602 136.889 103.628 136.667 103.672V109.076C136.833 109.121 137.061 109.153 137.351 109.172C137.64 109.185 137.912 109.197 138.164 109.197Z" fill="url(#paint9_linear_630_259)"/>
<path d="M146.99 114.557C146.269 114.557 145.714 114.346 145.338 113.918C144.956 113.496 144.765 112.901 144.765 112.14C144.765 111.29 145.012 110.637 145.505 110.183C145.998 109.729 146.786 109.467 147.865 109.39L149.695 109.237V108.642C149.695 107.926 149.566 107.433 149.301 107.171C149.036 106.909 148.543 106.775 147.822 106.775C147.501 106.775 147.125 106.8 146.7 106.852C146.269 106.903 145.856 106.973 145.449 107.063L145.301 105.745C145.813 105.656 146.306 105.585 146.768 105.534C147.23 105.483 147.674 105.457 148.087 105.457C149.208 105.457 150.034 105.688 150.552 106.148C151.069 106.609 151.334 107.338 151.334 108.335V114.461H149.979L149.812 113.362H149.707C149.288 113.726 148.857 114.014 148.395 114.231C147.933 114.449 147.47 114.557 146.99 114.557ZM147.594 113.259C147.939 113.259 148.296 113.163 148.666 112.971C149.036 112.78 149.375 112.575 149.695 112.358V110.273L148.321 110.426C147.612 110.497 147.119 110.65 146.836 110.874C146.552 111.098 146.41 111.469 146.41 111.98C146.404 112.837 146.799 113.259 147.594 113.259Z" fill="url(#paint10_linear_630_259)"/>
<path d="M154.108 105.573H155.482L155.569 106.583H155.673C156.394 106.142 157.011 105.835 157.528 105.662C158.04 105.483 158.52 105.4 158.964 105.4C160.381 105.4 161.084 106.206 161.084 107.817V114.468H159.439V108.367C159.439 107.824 159.346 107.44 159.167 107.203C158.989 106.967 158.693 106.851 158.292 106.851C157.929 106.851 157.534 106.928 157.109 107.082C156.678 107.235 156.222 107.446 155.735 107.708V114.474H154.114V105.573H154.108Z" fill="url(#paint11_linear_630_259)"/>
<path d="M167.028 114.64C166.572 114.64 166.091 114.602 165.592 114.531C165.093 114.461 164.507 114.34 163.842 114.18V101.16H165.463V106.519C165.752 106.167 166.11 105.892 166.523 105.694C166.935 105.495 167.41 105.399 167.94 105.399C168.994 105.399 169.795 105.764 170.343 106.499C170.892 107.235 171.163 108.354 171.163 109.857C171.163 111.334 170.818 112.498 170.134 113.336C169.45 114.18 168.414 114.615 167.028 114.64ZM167.046 113.393C167.909 113.393 168.531 113.137 168.92 112.626C169.308 112.114 169.505 111.244 169.505 110.01C169.505 108.827 169.351 107.983 169.037 107.484C168.723 106.985 168.199 106.736 167.465 106.736C166.923 106.736 166.455 106.909 166.06 107.254C165.666 107.599 165.469 108.085 165.469 108.712V113.214C165.949 113.336 166.479 113.393 167.046 113.393Z" fill="url(#paint12_linear_630_259)"/>
<path d="M177.038 114.621C175.774 114.621 174.825 114.244 174.184 113.476C173.544 112.715 173.229 111.596 173.229 110.119C173.229 108.565 173.544 107.395 174.178 106.608C174.807 105.815 175.737 105.425 176.958 105.425C179.065 105.425 180.119 106.743 180.119 109.377C180.119 109.659 180.113 109.889 180.1 110.068C180.088 110.247 180.063 110.432 180.039 110.605H174.856C174.912 111.539 175.115 112.217 175.472 112.639C175.83 113.061 176.397 113.265 177.192 113.265C177.999 113.265 178.843 113.105 179.731 112.786L179.811 114.103C179.41 114.263 178.96 114.391 178.467 114.487C177.968 114.576 177.494 114.621 177.038 114.621ZM176.914 106.736C175.626 106.736 174.936 107.644 174.856 109.46H178.665C178.64 108.463 178.486 107.759 178.215 107.35C177.944 106.941 177.512 106.736 176.914 106.736Z" fill="url(#paint13_linear_630_259)"/>
<path d="M182.511 105.572H183.885L183.965 106.78H184.07C184.489 106.486 184.926 106.218 185.389 105.968C185.851 105.719 186.307 105.54 186.75 105.418H187.231V107.023H186.627C186.183 107.081 185.746 107.196 185.315 107.362C184.883 107.529 184.489 107.733 184.131 107.963V114.461H182.511V105.572Z" fill="url(#paint14_linear_630_259)"/>
<path d="M192.647 114.621C191.383 114.621 190.434 114.244 189.793 113.476C189.153 112.715 188.838 111.596 188.838 110.119C188.838 108.565 189.153 107.395 189.787 106.608C190.416 105.815 191.346 105.425 192.567 105.425C194.674 105.425 195.728 106.743 195.728 109.377C195.728 109.659 195.722 109.889 195.709 110.068C195.697 110.247 195.673 110.432 195.648 110.605H190.465C190.521 111.539 190.724 112.217 191.081 112.639C191.439 113.061 192.006 113.265 192.801 113.265C193.608 113.265 194.452 113.105 195.34 112.786L195.42 114.103C195.019 114.263 194.569 114.391 194.076 114.487C193.577 114.576 193.103 114.621 192.647 114.621ZM192.523 106.736C191.235 106.736 190.545 107.644 190.465 109.46H194.274C194.249 108.463 194.095 107.759 193.824 107.35C193.553 106.941 193.115 106.736 192.523 106.736Z" fill="url(#paint15_linear_630_259)"/>
<path d="M200.389 114.641C200 114.641 199.594 114.609 199.162 114.551C198.731 114.494 198.225 114.398 197.64 114.263V112.927C198.127 113.061 198.595 113.164 199.045 113.247C199.495 113.33 199.92 113.368 200.327 113.368C200.869 113.368 201.276 113.253 201.547 113.016C201.818 112.78 201.954 112.46 201.954 112.051C201.954 111.61 201.824 111.296 201.559 111.104C201.294 110.913 200.912 110.759 200.413 110.644C200.124 110.586 199.815 110.516 199.495 110.433C199.174 110.356 198.885 110.222 198.62 110.049C198.355 109.877 198.139 109.627 197.973 109.301C197.806 108.981 197.72 108.54 197.72 107.984C197.72 107.152 197.985 106.5 198.521 106.04C199.057 105.579 199.803 105.349 200.758 105.349C201.116 105.349 201.473 105.381 201.818 105.439C202.163 105.496 202.632 105.579 203.211 105.682L203.149 107.044C202.638 106.929 202.213 106.839 201.88 106.781C201.547 106.724 201.233 106.692 200.943 106.692C199.834 106.692 199.279 107.108 199.279 107.945C199.279 108.431 199.433 108.751 199.748 108.924C200.062 109.09 200.469 109.224 200.968 109.327C201.331 109.416 201.664 109.512 201.978 109.621C202.293 109.73 202.564 109.883 202.792 110.068C203.02 110.26 203.199 110.51 203.322 110.817C203.445 111.124 203.507 111.507 203.507 111.961C203.507 112.793 203.236 113.451 202.693 113.925C202.157 114.404 201.387 114.641 200.389 114.641Z" fill="url(#paint16_linear_630_259)"/>
<path d="M209.185 102.279H211.472L214.177 109.613L214.929 111.922H215.052L215.804 109.613L218.528 102.279H220.814V114.467H219.274V104.542H219.193L218.195 107.394L215.742 113.962H214.245L211.811 107.394L210.788 104.542H210.708V114.467H209.192V102.279H209.185Z" fill="url(#paint17_linear_630_259)"/>
<path d="M225.856 114.638C224.427 114.638 223.712 113.833 223.712 112.221V105.57H225.332V111.697C225.332 112.24 225.419 112.618 225.591 112.841C225.764 113.059 226.06 113.174 226.479 113.174C226.879 113.174 227.292 113.091 227.717 112.918C228.143 112.752 228.58 112.535 229.036 112.272V105.577H230.657V114.472H229.307L229.184 113.462H229.122C228.746 113.666 228.42 113.845 228.136 113.986C227.853 114.133 227.588 114.255 227.335 114.357C227.083 114.459 226.848 114.53 226.614 114.575C226.392 114.619 226.134 114.638 225.856 114.638Z" fill="url(#paint18_linear_630_259)"/>
<path d="M233.544 101.16H235.165V114.467H233.544V101.16Z" fill="url(#paint19_linear_630_259)"/>
<path d="M241.239 114.602C239.599 114.602 238.786 113.752 238.786 112.057V107.05H237.165V105.579H238.872L239.1 103.27L240.388 103.072V105.573H242.675V107.043H240.388V111.699C240.388 112.722 240.832 113.234 241.719 113.234C241.843 113.234 241.991 113.221 242.169 113.189C242.348 113.157 242.521 113.125 242.699 113.08V114.398C242.212 114.532 241.726 114.602 241.239 114.602Z" fill="url(#paint20_linear_630_259)"/>
<path d="M245.61 103.84C244.956 103.84 244.63 103.501 244.63 102.83C244.63 102.158 244.956 101.819 245.61 101.819C246.251 101.819 246.565 102.158 246.565 102.83C246.571 103.508 246.251 103.84 245.61 103.84ZM244.778 105.573H246.423V114.469H244.778V105.573Z" fill="url(#paint21_linear_630_259)"/>
<path d="M252.542 102.279H254.206V113.016H258.932V114.467H252.542V102.279Z" fill="url(#paint22_linear_630_259)"/>
<path d="M263.968 114.621C262.705 114.621 261.756 114.244 261.115 113.476C260.474 112.715 260.16 111.596 260.16 110.119C260.16 108.565 260.474 107.395 261.109 106.608C261.737 105.815 262.668 105.425 263.888 105.425C265.996 105.425 267.049 106.743 267.049 109.377C267.049 109.659 267.043 109.889 267.031 110.068C267.019 110.247 266.994 110.432 266.969 110.605H261.787C261.842 111.539 262.045 112.217 262.403 112.639C262.76 113.061 263.327 113.265 264.122 113.265C264.929 113.265 265.774 113.105 266.661 112.786L266.741 114.103C266.341 114.263 265.891 114.391 265.398 114.487C264.899 114.576 264.424 114.621 263.968 114.621ZM263.845 106.736C262.557 106.736 261.867 107.644 261.787 109.46H265.595C265.57 108.463 265.416 107.759 265.145 107.35C264.874 106.941 264.436 106.736 263.845 106.736Z" fill="url(#paint23_linear_630_259)"/>
<path d="M268.25 105.752V105.58H269.938L271.873 111.706L272.206 113.043H272.354L272.668 111.706L274.603 105.58H276.292V105.752L273.297 114.469H271.238L268.25 105.752Z" fill="url(#paint24_linear_630_259)"/>
<path d="M281.364 114.621C280.101 114.621 279.152 114.244 278.511 113.476C277.87 112.715 277.556 111.596 277.556 110.119C277.556 108.565 277.87 107.395 278.505 106.608C279.133 105.815 280.064 105.425 281.284 105.425C283.392 105.425 284.445 106.743 284.445 109.377C284.445 109.659 284.439 109.889 284.427 110.068C284.415 110.247 284.39 110.432 284.365 110.605H279.183C279.238 111.539 279.441 112.217 279.799 112.639C280.156 113.061 280.723 113.265 281.518 113.265C282.325 113.265 283.17 113.105 284.057 112.786L284.137 114.103C283.737 114.263 283.287 114.391 282.794 114.487C282.295 114.576 281.82 114.621 281.364 114.621ZM281.241 106.736C279.953 106.736 279.263 107.644 279.183 109.46H282.991C282.966 108.463 282.812 107.759 282.541 107.35C282.27 106.941 281.832 106.736 281.241 106.736Z" fill="url(#paint25_linear_630_259)"/>
<path d="M286.459 101.16H288.079V114.467H286.459V101.16Z" fill="url(#paint26_linear_630_259)"/>
<path d="M293.498 102.279H295.784L298.49 109.613L299.242 111.922H299.365L300.117 109.613L302.841 102.279H305.127V114.467H303.586V104.542H303.506L302.508 107.394L300.055 113.962H298.558L296.123 107.394L295.1 104.542H295.02V114.467H293.504V102.279H293.498Z" fill="url(#paint27_linear_630_259)"/>
<path d="M309.458 114.557C308.737 114.557 308.183 114.346 307.807 113.918C307.425 113.496 307.234 112.901 307.234 112.14C307.234 111.29 307.48 110.637 307.973 110.183C308.466 109.729 309.255 109.467 310.333 109.39L312.164 109.237V108.642C312.164 107.926 312.034 107.433 311.769 107.171C311.504 106.909 311.011 106.775 310.29 106.775C309.97 106.775 309.594 106.8 309.169 106.852C308.737 106.903 308.324 106.973 307.918 107.063L307.77 105.745C308.281 105.656 308.774 105.585 309.236 105.534C309.699 105.483 310.142 105.457 310.555 105.457C311.677 105.457 312.502 105.688 313.02 106.148C313.538 106.609 313.803 107.338 313.803 108.335V114.461H312.453L312.287 113.362H312.182C311.763 113.726 311.332 114.014 310.869 114.231C310.413 114.449 309.945 114.557 309.458 114.557ZM310.062 113.259C310.407 113.259 310.765 113.163 311.134 112.971C311.504 112.78 311.843 112.575 312.164 112.358V110.273L310.789 110.426C310.081 110.497 309.588 110.65 309.304 110.874C309.021 111.098 308.879 111.469 308.879 111.98C308.873 112.837 309.273 113.259 310.062 113.259Z" fill="url(#paint28_linear_630_259)"/>
<path d="M316.201 105.572H317.575L317.655 106.78H317.76C318.179 106.486 318.617 106.218 319.079 105.968C319.541 105.719 319.997 105.54 320.441 105.418H320.921V107.023H320.317C319.874 107.081 319.436 107.196 319.005 107.362C318.573 107.529 318.179 107.733 317.822 107.963V114.461H316.201V105.572Z" fill="url(#paint29_linear_630_259)"/>
<path d="M322.547 101.16H324.168V109.281H325.351L327.828 105.572H329.64L326.769 109.742L326.454 109.876V109.94L326.787 110.074L329.887 114.467H328.075L325.326 110.496H324.162V114.467H322.541V101.16H322.547Z" fill="url(#paint30_linear_630_259)"/>
<path d="M334.681 114.621C333.418 114.621 332.469 114.244 331.828 113.476C331.187 112.715 330.873 111.596 330.873 110.119C330.873 108.565 331.187 107.395 331.822 106.608C332.451 105.815 333.381 105.425 334.601 105.425C336.709 105.425 337.763 106.743 337.763 109.377C337.763 109.659 337.757 109.889 337.744 110.068C337.732 110.247 337.707 110.432 337.683 110.605H332.5C332.555 111.539 332.759 112.217 333.116 112.639C333.474 113.061 334.041 113.265 334.836 113.265C335.643 113.265 336.487 113.105 337.375 112.786L337.455 114.103C337.054 114.263 336.604 114.391 336.111 114.487C335.612 114.576 335.138 114.621 334.681 114.621ZM334.558 106.736C333.27 106.736 332.58 107.644 332.5 109.46H336.308C336.284 108.463 336.13 107.759 335.859 107.35C335.587 106.941 335.15 106.736 334.558 106.736Z" fill="url(#paint31_linear_630_259)"/>
<path d="M342.985 114.602C341.345 114.602 340.532 113.752 340.532 112.057V107.05H338.911V105.579H340.618L340.846 103.27L342.134 103.072V105.573H344.421V107.043H342.134V111.699C342.134 112.722 342.578 113.234 343.465 113.234C343.589 113.234 343.737 113.221 343.915 113.189C344.094 113.157 344.267 113.125 344.445 113.08V114.398C343.958 114.532 343.472 114.602 342.985 114.602Z" fill="url(#paint32_linear_630_259)"/>
<path d="M346.982 103.84C346.329 103.84 346.002 103.501 346.002 102.83C346.002 102.158 346.329 101.819 346.982 101.819C347.623 101.819 347.937 102.158 347.937 102.83C347.937 103.508 347.617 103.84 346.982 103.84ZM346.15 105.573H347.796V114.469H346.15V105.573Z" fill="url(#paint33_linear_630_259)"/>
<path d="M350.248 105.573H351.622L351.702 106.583H351.807C352.528 106.142 353.144 105.835 353.662 105.662C354.173 105.483 354.654 105.4 355.098 105.4C356.515 105.4 357.217 106.206 357.217 107.817V114.468H355.572V108.367C355.572 107.824 355.48 107.44 355.301 107.203C355.122 106.967 354.826 106.851 354.426 106.851C354.062 106.851 353.668 106.928 353.236 107.082C352.805 107.235 352.349 107.446 351.862 107.708V114.474H350.241V105.573H350.248Z" fill="url(#paint34_linear_630_259)"/>
<path d="M362.55 118.087C362.076 118.087 361.607 118.048 361.133 117.978C360.658 117.908 360.227 117.812 359.82 117.69L359.943 116.373C360.72 116.622 361.509 116.744 362.316 116.744C362.735 116.744 363.105 116.693 363.438 116.59C363.77 116.488 364.054 116.322 364.282 116.085C364.51 115.848 364.689 115.542 364.812 115.164C364.935 114.781 364.997 114.314 364.997 113.757V113.207H364.917C364.35 114 363.536 114.39 362.482 114.39C361.398 114.39 360.584 114.039 360.036 113.335C359.487 112.632 359.216 111.551 359.216 110.087C359.216 108.533 359.58 107.362 360.307 106.576C361.034 105.783 362.039 105.393 363.314 105.393C363.789 105.393 364.276 105.431 364.793 105.502C365.305 105.578 365.896 105.706 366.562 105.898V113.476C366.562 114.339 366.463 115.062 366.26 115.65C366.057 116.239 365.779 116.705 365.428 117.064C365.077 117.422 364.652 117.684 364.159 117.844C363.666 118.01 363.13 118.087 362.55 118.087ZM362.901 113.124C363.456 113.124 363.931 112.958 364.325 112.619C364.719 112.28 364.917 111.788 364.917 111.129V106.844C364.652 106.8 364.381 106.761 364.103 106.723C363.826 106.685 363.549 106.665 363.271 106.665C362.452 106.665 361.848 106.915 361.459 107.414C361.071 107.912 360.874 108.75 360.874 109.94C360.874 111.065 361.034 111.877 361.355 112.376C361.681 112.881 362.193 113.124 362.901 113.124Z" fill="url(#paint35_linear_630_259)"/>
<defs>
<linearGradient id="paint0_linear_630_259" x1="79.6511" y1="13.0308" x2="66.2738" y2="67.9032" gradientUnits="userSpaceOnUse">
<stop stop-color="#900790"/>
<stop offset="1" stop-color="#721D7E"/>
</linearGradient>
<linearGradient id="paint1_linear_630_259" x1="79.6668" y1="73.8614" x2="66.2902" y2="128.734" gradientUnits="userSpaceOnUse">
<stop stop-color="#900790"/>
<stop offset="1" stop-color="#721D7E"/>
</linearGradient>
<linearGradient id="paint2_linear_630_259" x1="50.6526" y1="46.6651" x2="43.6922" y2="92.1033" gradientUnits="userSpaceOnUse">
<stop stop-color="#900790"/>
<stop offset="1" stop-color="#721D7E"/>
</linearGradient>
<linearGradient id="paint3_linear_630_259" x1="117.163" y1="46.4633" x2="110.222" y2="91.9076" gradientUnits="userSpaceOnUse">
<stop stop-color="#900790"/>
<stop offset="1" stop-color="#721D7E"/>
</linearGradient>
<linearGradient id="paint4_linear_630_259" x1="147.013" y1="37.8957" x2="111.09" y2="73.9824" gradientUnits="userSpaceOnUse">
<stop stop-color="#900790"/>
<stop offset="1" stop-color="#721D7E"/>
</linearGradient>
<linearGradient id="paint5_linear_630_259" x1="190.944" y1="32.0556" x2="182.065" y2="75.7365" gradientUnits="userSpaceOnUse">
<stop stop-color="#900790"/>
<stop offset="1" stop-color="#721D7E"/>
</linearGradient>
<linearGradient id="paint6_linear_630_259" x1="256.381" y1="37.8957" x2="240.766" y2="106.171" gradientUnits="userSpaceOnUse">
<stop stop-color="#900790"/>
<stop offset="1" stop-color="#721D7E"/>
</linearGradient>
<linearGradient id="paint7_linear_630_259" x1="319.855" y1="38.6825" x2="303.971" y2="106.826" gradientUnits="userSpaceOnUse">
<stop stop-color="#900790"/>
<stop offset="1" stop-color="#721D7E"/>
</linearGradient>
<linearGradient id="paint8_linear_630_259" x1="358.772" y1="37.7131" x2="346.356" y2="106.494" gradientUnits="userSpaceOnUse">
<stop stop-color="#900790"/>
<stop offset="1" stop-color="#721D7E"/>
</linearGradient>
<linearGradient id="paint9_linear_630_259" x1="142.099" y1="104.886" x2="138.695" y2="116.433" gradientUnits="userSpaceOnUse">
<stop stop-color="#900790"/>
<stop offset="1" stop-color="#721D7E"/>
</linearGradient>
<linearGradient id="paint10_linear_630_259" x1="150.603" y1="107.503" x2="148.324" y2="116.137" gradientUnits="userSpaceOnUse">
<stop stop-color="#900790"/>
<stop offset="1" stop-color="#721D7E"/>
</linearGradient>
<linearGradient id="paint11_linear_630_259" x1="160.307" y1="107.44" x2="158.157" y2="116.116" gradientUnits="userSpaceOnUse">
<stop stop-color="#900790"/>
<stop offset="1" stop-color="#721D7E"/>
</linearGradient>
<linearGradient id="paint12_linear_630_259" x1="170.347" y1="104.19" x2="166.074" y2="116.371" gradientUnits="userSpaceOnUse">
<stop stop-color="#900790"/>
<stop offset="1" stop-color="#721D7E"/>
</linearGradient>
<linearGradient id="paint13_linear_630_259" x1="179.352" y1="107.493" x2="177.122" y2="116.258" gradientUnits="userSpaceOnUse">
<stop stop-color="#900790"/>
<stop offset="1" stop-color="#721D7E"/>
</linearGradient>
<linearGradient id="paint14_linear_630_259" x1="186.705" y1="107.451" x2="183.75" y2="115.549" gradientUnits="userSpaceOnUse">
<stop stop-color="#900790"/>
<stop offset="1" stop-color="#721D7E"/>
</linearGradient>
<linearGradient id="paint15_linear_630_259" x1="194.961" y1="107.493" x2="192.731" y2="116.258" gradientUnits="userSpaceOnUse">
<stop stop-color="#900790"/>
<stop offset="1" stop-color="#721D7E"/>
</linearGradient>
<linearGradient id="paint16_linear_630_259" x1="202.853" y1="107.438" x2="200.245" y2="116.08" gradientUnits="userSpaceOnUse">
<stop stop-color="#900790"/>
<stop offset="1" stop-color="#721D7E"/>
</linearGradient>
<linearGradient id="paint17_linear_630_259" x1="219.519" y1="105.019" x2="217.143" y2="116.914" gradientUnits="userSpaceOnUse">
<stop stop-color="#900790"/>
<stop offset="1" stop-color="#721D7E"/>
</linearGradient>
<linearGradient id="paint18_linear_630_259" x1="229.883" y1="107.609" x2="227.727" y2="116.275" gradientUnits="userSpaceOnUse">
<stop stop-color="#900790"/>
<stop offset="1" stop-color="#721D7E"/>
</linearGradient>
<linearGradient id="paint19_linear_630_259" x1="234.984" y1="104.152" x2="228.856" y2="108.069" gradientUnits="userSpaceOnUse">
<stop stop-color="#900790"/>
<stop offset="1" stop-color="#721D7E"/>
</linearGradient>
<linearGradient id="paint20_linear_630_259" x1="242.083" y1="105.664" x2="238.07" y2="115.772" gradientUnits="userSpaceOnUse">
<stop stop-color="#900790"/>
<stop offset="1" stop-color="#721D7E"/>
</linearGradient>
<linearGradient id="paint21_linear_630_259" x1="246.349" y1="104.663" x2="240.083" y2="109.695" gradientUnits="userSpaceOnUse">
<stop stop-color="#900790"/>
<stop offset="1" stop-color="#721D7E"/>
</linearGradient>
<linearGradient id="paint22_linear_630_259" x1="258.221" y1="105.019" x2="254.25" y2="115.945" gradientUnits="userSpaceOnUse">
<stop stop-color="#900790"/>
<stop offset="1" stop-color="#721D7E"/>
</linearGradient>
<linearGradient id="paint23_linear_630_259" x1="266.282" y1="107.493" x2="264.053" y2="116.258" gradientUnits="userSpaceOnUse">
<stop stop-color="#900790"/>
<stop offset="1" stop-color="#721D7E"/>
</linearGradient>
<linearGradient id="paint24_linear_630_259" x1="275.396" y1="107.578" x2="273.577" y2="116.216" gradientUnits="userSpaceOnUse">
<stop stop-color="#900790"/>
<stop offset="1" stop-color="#721D7E"/>
</linearGradient>
<linearGradient id="paint25_linear_630_259" x1="283.678" y1="107.493" x2="281.449" y2="116.258" gradientUnits="userSpaceOnUse">
<stop stop-color="#900790"/>
<stop offset="1" stop-color="#721D7E"/>
</linearGradient>
<linearGradient id="paint26_linear_630_259" x1="287.899" y1="104.152" x2="281.771" y2="108.069" gradientUnits="userSpaceOnUse">
<stop stop-color="#900790"/>
<stop offset="1" stop-color="#721D7E"/>
</linearGradient>
<linearGradient id="paint27_linear_630_259" x1="303.832" y1="105.019" x2="301.456" y2="116.914" gradientUnits="userSpaceOnUse">
<stop stop-color="#900790"/>
<stop offset="1" stop-color="#721D7E"/>
</linearGradient>
<linearGradient id="paint28_linear_630_259" x1="313.071" y1="107.503" x2="310.792" y2="116.137" gradientUnits="userSpaceOnUse">
<stop stop-color="#900790"/>
<stop offset="1" stop-color="#721D7E"/>
</linearGradient>
<linearGradient id="paint29_linear_630_259" x1="320.396" y1="107.451" x2="317.44" y2="115.549" gradientUnits="userSpaceOnUse">
<stop stop-color="#900790"/>
<stop offset="1" stop-color="#721D7E"/>
</linearGradient>
<linearGradient id="paint30_linear_630_259" x1="329.069" y1="104.152" x2="324.903" y2="116.219" gradientUnits="userSpaceOnUse">
<stop stop-color="#900790"/>
<stop offset="1" stop-color="#721D7E"/>
</linearGradient>
<linearGradient id="paint31_linear_630_259" x1="336.995" y1="107.493" x2="334.766" y2="116.258" gradientUnits="userSpaceOnUse">
<stop stop-color="#900790"/>
<stop offset="1" stop-color="#721D7E"/>
</linearGradient>
<linearGradient id="paint32_linear_630_259" x1="343.829" y1="105.664" x2="339.816" y2="115.772" gradientUnits="userSpaceOnUse">
<stop stop-color="#900790"/>
<stop offset="1" stop-color="#721D7E"/>
</linearGradient>
<linearGradient id="paint33_linear_630_259" x1="347.722" y1="104.663" x2="341.455" y2="109.695" gradientUnits="userSpaceOnUse">
<stop stop-color="#900790"/>
<stop offset="1" stop-color="#721D7E"/>
</linearGradient>
<linearGradient id="paint34_linear_630_259" x1="356.44" y1="107.44" x2="354.29" y2="116.116" gradientUnits="userSpaceOnUse">
<stop stop-color="#900790"/>
<stop offset="1" stop-color="#721D7E"/>
</linearGradient>
<linearGradient id="paint35_linear_630_259" x1="365.744" y1="108.247" x2="361.917" y2="119.869" gradientUnits="userSpaceOnUse">
<stop stop-color="#900790"/>
<stop offset="1" stop-color="#721D7E"/>
</linearGradient>
</defs>
</svg>
