<?xml version="1.0" encoding="utf-8"?>
<!-- Generator: Adobe Illustrator 26.5.0, SVG Export Plug-In . SVG Version: 6.00 Build 0)  -->
<svg version="1.1" xmlns="http://www.w3.org/2000/svg" xmlns:xlink="http://www.w3.org/1999/xlink" x="0px" y="0px"
	 viewBox="0 0 611.22 225.39" style="enable-background:new 0 0 611.22 225.39;" xml:space="preserve">
<style type="text/css">
	.st0{fill:#751B74;}
</style>
<g id="EN">
	<g id="Layer_3">
	</g>
</g>
<g id="AR">
</g>
<g id="FA_00000183940414322404353030000011722459194607024781_">
	<g>
		<g>
			<path class="st0" d="M143.75,54.71c-0.15,5.38-1.32,10.65-3.79,15.46c-2.86,5.61-7.33,9.76-11.71,14.13
				c-8.58,8.58-17.15,17.15-25.73,25.73V99.35c8.78-8.78,17.72-17.73,26.51-26.51c3.64-3.65,7.26-7.26,9.89-11.75
				c2.34-3.97,3.57-8.09,4.32-12.5c-0.16-1.02-0.38-2.04-0.64-3.05c-0.63-2.4-1.52-4.74-2.64-6.95
				c-9.1-17.96-31.54-27.28-49.9-17.58C81,25.78,74.38,34.52,72.25,44.54c-0.14,0.63-0.24,1.27-0.33,1.91
				c0.34,2.14,0.9,4.25,1.63,6.29c1.74,4.84,4.58,9.1,8.14,12.78c6.61,6.84,14.14,14.28,20.83,21.03v10.97
				c-4.38-4.42-9.52-9.59-13.9-14.01c-5.95-6.01-12.11-11.6-15.08-19.79c-1.54-4.24-1.99-8.56-2.1-12.98
				c-0.01-0.35-0.1-0.74-0.12-1.09c-0.12-1.66-0.02-5.1,0.09-7.03c0.05-3.56,0.28-7.12,1.18-10.6
				c2.87-10.98,11.18-20.08,21.85-23.94c21.43-7.75,45.92,8.35,48.96,30.62C144.13,43.94,143.9,49.44,143.75,54.71z"/>
		</g>
		<g>
			<path class="st0" d="M71.43,171.78c0.15-5.38,1.32-10.65,3.79-15.46c2.86-5.61,7.33-9.76,11.71-14.13
				c8.58-8.58,17.15-17.15,25.73-25.73v10.97c-8.78,8.78-17.56,17.57-26.35,26.35c-3.64,3.65-7.42,7.13-10.05,11.62
				c-2.34,3.97-3.57,8.09-4.32,12.5c0.16,1.02,0.38,2.04,0.64,3.05c0.63,2.4,1.52,4.74,2.64,6.95c9.1,17.96,31.54,27.28,49.9,17.58
				c9.06-4.78,15.69-13.52,17.82-23.54c0.14-0.63,0.24-1.27,0.33-1.91c-0.34-2.14-0.9-4.25-1.63-6.29
				c-1.74-4.84-4.58-9.1-8.14-12.78c-6.61-6.84-14.14-14.28-20.83-21.03v-10.97c4.38,4.42,9.52,9.59,13.9,14.01
				c5.95,6.01,12.11,11.6,15.08,19.79c1.54,4.24,1.99,8.56,2.1,12.98c0.01,0.35,0.1,0.74,0.12,1.09c0.12,1.66,0.02,5.1-0.09,7.03
				c-0.05,3.56-0.28,7.12-1.18,10.6c-2.87,10.98-11.18,20.08-21.85,23.94c-21.43,7.75-45.92-8.35-48.96-30.62
				C71.05,182.56,71.28,177.05,71.43,171.78z"/>
		</g>
		<g>
			<path class="st0" d="M99.06,111.95V123c-3.83-3.83-7.18-7.18-11.02-11.01c-0.26-0.26-0.5-0.5-0.76-0.76
				c-4.61-4.61-9.23-9.23-13.84-13.84c-3.83-3.83-7.5-7.72-12.33-10.36c-9.34-5.13-20.83-5.64-30.6-1.42
				c-8.11,3.52-15.77,10.86-19.78,18.75c-1.28,2.52-2.25,5.21-2.89,7.97c-0.18,0.78-0.33,1.56-0.44,2.35
				c0.74,4.64,2.42,9.14,4.93,13.1c11.88,18.78,38.39,21.38,54.14,6.04c7.03-6.84,13.88-13.87,20.81-20.81l0.01,10.62
				c-4.44,4.44-9.13,9.13-13.57,13.57c-5.32,5.33-10.12,11.25-17.07,14.51c-21.14,9.9-46.64-4.16-49.43-27.37
				c-1.18-9.82-1.14-21.44,3.28-30.47c4.2-8.59,12.55-16.44,21.49-19.83c10.33-3.92,22.2-2.65,31.44,3.41
				c4.48,2.93,8.14,7.08,11.9,10.85c4.18,4.19,8.37,8.37,12.56,12.56c0.05,0.05,0.1,0.11,0.15,0.16
				C91.88,104.85,95.23,108.12,99.06,111.95z"/>
		</g>
		<g>
			<path class="st0" d="M114.24,114.12l0.11-10.97c3.83,3.83,7.36,7.39,11.19,11.22c0.26,0.26,0.5,0.5,0.76,0.76
				c4.61,4.61,9.23,9.23,13.84,13.84c3.83,3.83,7.5,7.72,12.33,10.36c9.34,5.13,20.83,5.64,30.6,1.42
				c8.11-3.52,15.77-10.86,19.78-18.75c1.28-2.52,2.25-5.21,2.89-7.97c0.18-0.78,0.33-1.56,0.44-2.35
				c-0.74-4.64-2.42-9.14-4.93-13.1c-11.88-18.78-38.54-21.51-54.29-6.17c-7.03,6.84-13.72,13.74-20.65,20.68l-0.02-10.71
				c4.44-4.44,8.89-8.89,13.33-13.33c5.32-5.33,10.36-11.14,17.3-14.39c21.14-9.9,46.64,4.16,49.43,27.37
				c1.18,9.82,1.14,21.44-3.28,30.47c-4.2,8.59-12.55,16.44-21.49,19.83c-10.33,3.92-22.2,2.65-31.44-3.41
				c-4.48-2.93-8.14-7.08-11.9-10.85c-4.18-4.19-8.37-8.37-12.56-12.56c-0.05-0.05-0.1-0.11-0.15-0.16
				C121.7,121.51,118.08,117.95,114.24,114.12z"/>
		</g>
	</g>
	<g>
		<path class="st0" d="M237.13,182.6c-0.34,0-0.66-0.04-0.95-0.12c-0.29-0.08-0.57-0.22-0.82-0.41c-0.11,1-0.38,1.91-0.83,2.74
			c-0.45,0.83-0.96,1.54-1.55,2.13c-0.59,0.59-1.19,1.04-1.82,1.36c-0.62,0.32-1.17,0.48-1.63,0.48c-0.11,0-0.29-0.04-0.55-0.12
			c-0.26-0.08-0.55-0.18-0.87-0.3s-0.66-0.25-1.03-0.41c-0.37-0.16-0.72-0.32-1.06-0.48l0.51-1.76c0.45,0.09,0.91,0.16,1.4,0.2
			c0.49,0.04,0.89,0.08,1.19,0.09c0.36-0.02,0.76-0.16,1.22-0.41c0.45-0.26,0.89-0.58,1.31-0.96c0.42-0.38,0.79-0.82,1.11-1.3
			c0.32-0.48,0.54-0.95,0.64-1.42c-0.05-0.36-0.14-0.75-0.27-1.19c-0.12-0.44-0.27-0.88-0.43-1.34c-0.16-0.45-0.34-0.91-0.52-1.36
			c-0.19-0.45-0.37-0.89-0.55-1.3l2.09-1.71l1.07,2.91c0.23,0.66,0.53,1.09,0.88,1.28c0.36,0.2,0.85,0.3,1.5,0.32h0.03v3.08H237.13z
			 M233.12,173.83c-0.28-0.23-0.65-0.49-1.11-0.76c-0.45-0.28-0.89-0.53-1.3-0.76l1.31-2.3c0.5,0.2,0.96,0.43,1.39,0.71
			c0.43,0.28,0.79,0.57,1.1,0.87L233.12,173.83z"/>
		<path class="st0" d="M237.21,182.6c-0.16,0-0.3-0.15-0.43-0.45c-0.12-0.3-0.19-0.66-0.19-1.07c0-0.43,0.06-0.79,0.19-1.1
			c0.13-0.3,0.27-0.45,0.43-0.45h2.67v3.08H237.21z"/>
		<path class="st0" d="M239.88,182.6c-0.16,0-0.3-0.15-0.43-0.45c-0.12-0.3-0.19-0.66-0.19-1.07c0-0.43,0.06-0.79,0.19-1.1
			c0.13-0.3,0.27-0.45,0.43-0.45h2.67v3.08H239.88z"/>
		<path class="st0" d="M242.56,182.6c-0.16,0-0.3-0.15-0.43-0.45c-0.12-0.3-0.19-0.66-0.19-1.07c0-0.43,0.06-0.79,0.19-1.1
			c0.13-0.3,0.27-0.45,0.43-0.45h2.67v3.08H242.56z"/>
		<path class="st0" d="M245.23,182.6c-0.16,0-0.3-0.15-0.43-0.45c-0.12-0.3-0.19-0.66-0.19-1.07c0-0.43,0.06-0.79,0.19-1.1
			c0.13-0.3,0.27-0.45,0.43-0.45h2.67v3.08H245.23z"/>
		<path class="st0" d="M248.2,188.35c-0.28-0.21-0.65-0.46-1.11-0.75c-0.45-0.28-0.89-0.53-1.3-0.75l1.31-2.3
			c0.48,0.2,0.94,0.43,1.36,0.7c0.43,0.27,0.79,0.55,1.1,0.86L248.2,188.35z M247.29,181.08c0-0.43,0.06-0.79,0.19-1.1
			c0.13-0.3,0.27-0.45,0.43-0.45h0.35c0.18,0,0.41-0.01,0.71-0.03c0.29-0.02,0.61-0.05,0.96-0.09c0.35-0.04,0.7-0.11,1.06-0.2
			c0.36-0.09,0.69-0.2,0.99-0.35c-0.13-0.84-0.33-1.69-0.63-2.57c-0.3-0.87-0.59-1.59-0.9-2.14l2.11-1.79
			c0.23,0.46,0.44,0.95,0.62,1.46c0.18,0.51,0.33,1.02,0.45,1.52c0.12,0.51,0.22,1,0.28,1.47c0.06,0.47,0.09,0.9,0.09,1.3
			c0,0.23-0.06,0.52-0.17,0.86s-0.25,0.67-0.41,1c-0.16,0.33-0.33,0.63-0.51,0.91c-0.18,0.28-0.33,0.48-0.45,0.6
			c-0.21,0.2-0.48,0.36-0.8,0.5c-0.32,0.13-0.68,0.25-1.08,0.35c-0.4,0.1-0.82,0.17-1.27,0.21c-0.45,0.04-0.89,0.07-1.34,0.07h-0.05
			c-0.16,0-0.3-0.15-0.43-0.45C247.35,181.84,247.29,181.49,247.29,181.08z M251.78,188.27c-0.29-0.23-0.66-0.49-1.12-0.76
			c-0.46-0.28-0.89-0.52-1.28-0.74l1.28-2.3c0.5,0.2,0.96,0.43,1.39,0.7c0.43,0.27,0.79,0.55,1.1,0.86L251.78,188.27z"/>
		<path class="st0" d="M256.68,188.78c-0.23,0-0.56-0.09-0.98-0.28c-0.42-0.19-0.99-0.44-1.7-0.76l0.62-1.74
			c0.2,0.04,0.45,0.06,0.75,0.08c0.3,0.02,0.54,0.03,0.72,0.05c0.32-0.04,0.68-0.19,1.07-0.45c0.39-0.27,0.77-0.6,1.14-1
			c0.36-0.4,0.69-0.84,0.96-1.32c0.28-0.48,0.45-0.96,0.52-1.44c-0.05-0.36-0.14-0.75-0.27-1.19c-0.12-0.44-0.27-0.88-0.43-1.34
			c-0.16-0.45-0.34-0.91-0.52-1.36c-0.19-0.45-0.37-0.89-0.55-1.3l2.09-1.71c0.64,1.55,1.08,2.83,1.32,3.85
			c0.24,1.02,0.36,1.84,0.36,2.46c0,1.11-0.18,2.12-0.55,3.04c-0.37,0.92-0.81,1.7-1.34,2.35c-0.53,0.65-1.08,1.16-1.67,1.52
			C257.64,188.6,257.12,188.78,256.68,188.78z"/>
		<path class="st0" d="M277.32,182.6c-1.05,0-1.89-0.2-2.51-0.6c-0.62-0.4-1.08-1-1.36-1.8c-0.21,0.43-0.43,0.72-0.64,0.88
			c-0.45,0.34-1.33,0.51-2.65,0.51c-1.02,0-1.8-0.2-2.35-0.62c-0.55-0.41-0.83-1.07-0.83-1.98c0-0.61,0.08-1.15,0.23-1.65
			c0.15-0.49,0.35-0.88,0.6-1.16c0.3-0.39,0.82-0.87,1.56-1.43c0.74-0.56,1.61-1.29,2.61-2.18l-0.32-1.76l2-1.74l1.5,8.77
			c0.05,0.27,0.12,0.51,0.2,0.72c0.08,0.21,0.21,0.39,0.39,0.53c0.18,0.14,0.41,0.25,0.71,0.32c0.29,0.07,0.67,0.11,1.14,0.11v3.08
			H277.32z M268.95,177.65c0,0.39,0.13,0.64,0.4,0.75c0.27,0.11,0.69,0.16,1.26,0.16c0.86,0,1.67-0.07,2.43-0.21l-0.64-3.53
			c-1,0.84-1.78,1.46-2.35,1.87C269.47,177.1,269.11,177.42,268.95,177.65z"/>
		<path class="st0" d="M277.59,182.6c-0.16,0-0.3-0.15-0.43-0.45c-0.12-0.3-0.19-0.66-0.19-1.07c0-0.43,0.06-0.79,0.19-1.1
			c0.13-0.3,0.27-0.45,0.43-0.45h2.67v3.08H277.59z"/>
		<path class="st0" d="M280.26,182.6c-0.16,0-0.3-0.15-0.43-0.45c-0.12-0.3-0.19-0.66-0.19-1.07c0-0.43,0.06-0.79,0.19-1.1
			c0.13-0.3,0.27-0.45,0.43-0.45h2.67v3.08H280.26z"/>
		<path class="st0" d="M282.93,182.6c-0.16,0-0.3-0.15-0.43-0.45c-0.12-0.3-0.19-0.66-0.19-1.07c0-0.43,0.06-0.79,0.19-1.1
			c0.13-0.3,0.27-0.45,0.43-0.45h2.67v3.08H282.93z"/>
		<path class="st0" d="M285.61,182.6c-0.16,0-0.3-0.15-0.43-0.45c-0.12-0.3-0.19-0.66-0.19-1.07c0-0.43,0.06-0.79,0.19-1.1
			c0.13-0.3,0.27-0.45,0.43-0.45h2.67v3.08H285.61z"/>
		<path class="st0" d="M288.28,182.6c-0.16,0-0.3-0.15-0.43-0.45c-0.12-0.3-0.19-0.66-0.19-1.07c0-0.43,0.06-0.79,0.19-1.1
			c0.13-0.3,0.27-0.45,0.43-0.45h2.67v3.08H288.28z"/>
		<path class="st0" d="M299.65,182.6c-0.84,0-1.6-0.12-2.29-0.35c-0.69-0.23-1.22-0.71-1.59-1.44c-0.25,0.43-0.45,0.7-0.59,0.83
			c-0.34,0.3-0.9,0.54-1.69,0.71c-0.78,0.17-1.63,0.25-2.54,0.25c-0.16,0-0.3-0.15-0.43-0.45c-0.12-0.3-0.19-0.66-0.19-1.07
			c0-0.43,0.06-0.79,0.19-1.1c0.13-0.3,0.27-0.45,0.43-0.45h0.35c0.45,0,0.99-0.03,1.63-0.09c0.64-0.06,1.23-0.22,1.76-0.47
			c-0.04-0.52-0.08-1.13-0.13-1.85c-0.05-0.71-0.13-1.39-0.21-2.03l2.25-1.2l0.37,3.56c0.05,0.48,0.16,0.86,0.33,1.14
			c0.17,0.28,0.39,0.49,0.65,0.63c0.27,0.14,0.57,0.23,0.9,0.27c0.33,0.04,0.68,0.05,1.06,0.05v3.08H299.65z M295.66,188.3
			c-0.27-0.23-0.63-0.49-1.1-0.76c-0.46-0.28-0.9-0.53-1.31-0.76l1.31-2.3c0.5,0.2,0.96,0.43,1.39,0.71
			c0.43,0.28,0.79,0.56,1.1,0.84L295.66,188.3z"/>
		<path class="st0" d="M308.6,182.6c-0.84,0-1.6-0.12-2.29-0.35c-0.69-0.23-1.22-0.71-1.59-1.44c-0.25,0.43-0.45,0.7-0.59,0.83
			c-0.34,0.3-0.9,0.54-1.69,0.71c-0.78,0.17-1.63,0.25-2.54,0.25c-0.16,0-0.3-0.15-0.43-0.45c-0.12-0.3-0.19-0.66-0.19-1.07
			c0-0.43,0.06-0.79,0.19-1.1c0.13-0.3,0.27-0.45,0.43-0.45h0.35c0.45,0,0.99-0.03,1.63-0.09c0.64-0.06,1.23-0.22,1.76-0.47
			c-0.04-0.52-0.08-1.13-0.13-1.85c-0.05-0.71-0.13-1.39-0.21-2.03l2.25-1.2l0.37,3.56c0.05,0.48,0.16,0.86,0.33,1.14
			c0.17,0.28,0.39,0.49,0.65,0.63c0.27,0.14,0.57,0.23,0.9,0.27c0.33,0.04,0.68,0.05,1.06,0.05v3.08H308.6z M304.62,172.47
			c-0.28-0.23-0.65-0.49-1.11-0.76c-0.45-0.28-0.89-0.53-1.3-0.76l1.31-2.3c0.5,0.2,0.96,0.43,1.39,0.71
			c0.43,0.28,0.79,0.57,1.1,0.87L304.62,172.47z"/>
		<path class="st0" d="M309.16,188.35c-0.28-0.21-0.65-0.46-1.11-0.75c-0.45-0.28-0.89-0.53-1.3-0.75l1.31-2.3
			c0.48,0.2,0.94,0.43,1.36,0.7c0.43,0.27,0.79,0.55,1.1,0.86L309.16,188.35z M308.26,181.08c0-0.43,0.06-0.79,0.19-1.1
			c0.13-0.3,0.27-0.45,0.43-0.45h0.35c0.18,0,0.41-0.01,0.71-0.03c0.29-0.02,0.61-0.05,0.96-0.09c0.35-0.04,0.7-0.11,1.06-0.2
			c0.36-0.09,0.69-0.2,0.99-0.35c-0.13-0.84-0.33-1.69-0.63-2.57c-0.3-0.87-0.59-1.59-0.9-2.14l2.11-1.79
			c0.23,0.46,0.44,0.95,0.62,1.46c0.18,0.51,0.33,1.02,0.45,1.52c0.12,0.51,0.22,1,0.28,1.47c0.06,0.47,0.09,0.9,0.09,1.3
			c0,0.23-0.06,0.52-0.17,0.86c-0.12,0.34-0.25,0.67-0.41,1c-0.16,0.33-0.33,0.63-0.51,0.91c-0.18,0.28-0.33,0.48-0.45,0.6
			c-0.21,0.2-0.48,0.36-0.8,0.5c-0.32,0.13-0.68,0.25-1.08,0.35c-0.4,0.1-0.82,0.17-1.27,0.21c-0.45,0.04-0.89,0.07-1.34,0.07h-0.05
			c-0.16,0-0.3-0.15-0.43-0.45C308.32,181.84,308.26,181.49,308.26,181.08z M311.46,191.29c-0.28-0.21-0.63-0.44-1.03-0.7
			c-0.4-0.25-0.79-0.47-1.16-0.67c0.21-0.37,0.41-0.72,0.57-1.03c0.17-0.31,0.36-0.65,0.58-1c0.46,0.18,0.89,0.39,1.27,0.64
			c0.38,0.25,0.71,0.51,0.98,0.78L311.46,191.29z M312.75,188.27c-0.29-0.23-0.66-0.49-1.12-0.76c-0.46-0.28-0.89-0.52-1.28-0.74
			l1.28-2.3c0.5,0.2,0.96,0.43,1.39,0.7c0.43,0.27,0.79,0.55,1.1,0.86L312.75,188.27z"/>
		<path class="st0" d="M331.57,182.55c-0.36-0.04-0.7-0.12-1.04-0.24s-0.66-0.3-0.96-0.54c-0.3-0.23-0.58-0.53-0.83-0.91
			c-0.2,0.5-0.73,0.94-1.59,1.32c-0.86,0.38-1.99,0.58-3.38,0.58c-0.82,0-1.48-0.07-1.97-0.2c-0.49-0.13-0.87-0.33-1.14-0.57
			c-0.27-0.25-0.44-0.55-0.52-0.9c-0.08-0.35-0.12-0.73-0.12-1.14c0-0.46,0.03-0.96,0.09-1.48c0.06-0.53,0.14-0.99,0.23-1.4
			l1.5,0.27c-0.05,0.37-0.08,0.74-0.08,1.1c0,0.18,0.01,0.34,0.03,0.5c0.02,0.15,0.1,0.28,0.24,0.39c0.14,0.11,0.37,0.19,0.7,0.25
			c0.32,0.06,0.79,0.09,1.42,0.09c0.5,0,1.08-0.04,1.74-0.12c0.66-0.08,1.36-0.26,2.11-0.55c-0.3-1.18-0.66-2.35-1.08-3.52
			c-0.42-1.17-0.87-2.26-1.35-3.28l2-1.82c0.23,0.48,0.46,1.03,0.68,1.63c0.22,0.61,0.43,1.23,0.62,1.89
			c0.19,0.65,0.37,1.3,0.53,1.94c0.17,0.64,0.33,1.25,0.47,1.82c0.18,0.68,0.49,1.16,0.94,1.44c0.44,0.29,1.06,0.43,1.85,0.43v3.08
			C332.29,182.6,331.93,182.58,331.57,182.55z"/>
		<path class="st0" d="M332.64,182.6c-0.16,0-0.3-0.15-0.43-0.45c-0.12-0.3-0.19-0.66-0.19-1.07c0-0.43,0.06-0.79,0.19-1.1
			c0.13-0.3,0.27-0.45,0.43-0.45h2.67v3.08H332.64z"/>
		<path class="st0" d="M335.32,182.6c-0.16,0-0.3-0.15-0.43-0.45c-0.12-0.3-0.19-0.66-0.19-1.07c0-0.43,0.06-0.79,0.19-1.1
			c0.13-0.3,0.27-0.45,0.43-0.45h2.67v3.08H335.32z"/>
		<path class="st0" d="M337.99,182.6c-0.16,0-0.3-0.15-0.43-0.45c-0.12-0.3-0.19-0.66-0.19-1.07c0-0.43,0.06-0.79,0.19-1.1
			c0.13-0.3,0.27-0.45,0.43-0.45h2.67v3.08H337.99z"/>
		<path class="st0" d="M340.66,182.6c-0.16,0-0.3-0.15-0.43-0.45c-0.12-0.3-0.19-0.66-0.19-1.07c0-0.43,0.06-0.79,0.19-1.1
			c0.13-0.3,0.27-0.45,0.43-0.45h2.67v3.08H340.66z"/>
		<path class="st0" d="M343.34,182.6c-0.16,0-0.3-0.15-0.43-0.45c-0.12-0.3-0.19-0.66-0.19-1.07c0-0.43,0.06-0.79,0.19-1.1
			c0.13-0.3,0.27-0.45,0.43-0.45h2.67v3.08H343.34z"/>
		<path class="st0" d="M346.01,182.6c-0.16,0-0.3-0.15-0.43-0.45c-0.12-0.3-0.19-0.66-0.19-1.07c0-0.43,0.06-0.79,0.19-1.1
			c0.13-0.3,0.27-0.45,0.43-0.45h2.67v3.08H346.01z"/>
		<path class="st0" d="M348.98,188.35c-0.28-0.21-0.65-0.46-1.11-0.75c-0.45-0.28-0.89-0.53-1.3-0.75l1.31-2.3
			c0.48,0.2,0.94,0.43,1.36,0.7c0.43,0.27,0.79,0.55,1.1,0.86L348.98,188.35z M348.07,181.08c0-0.43,0.06-0.79,0.19-1.1
			c0.13-0.3,0.27-0.45,0.43-0.45h0.35c0.18,0,0.41-0.01,0.71-0.03c0.29-0.02,0.61-0.05,0.96-0.09c0.35-0.04,0.7-0.11,1.06-0.2
			c0.36-0.09,0.69-0.2,0.99-0.35c-0.13-0.84-0.33-1.69-0.63-2.57c-0.3-0.87-0.59-1.59-0.9-2.14l2.11-1.79
			c0.23,0.46,0.44,0.95,0.62,1.46c0.18,0.51,0.33,1.02,0.45,1.52c0.12,0.51,0.22,1,0.28,1.47c0.06,0.47,0.09,0.9,0.09,1.3
			c0,0.23-0.06,0.52-0.17,0.86c-0.12,0.34-0.25,0.67-0.41,1c-0.16,0.33-0.33,0.63-0.51,0.91c-0.18,0.28-0.33,0.48-0.45,0.6
			c-0.21,0.2-0.48,0.36-0.8,0.5c-0.32,0.13-0.68,0.25-1.08,0.35s-0.82,0.17-1.27,0.21c-0.45,0.04-0.89,0.07-1.34,0.07h-0.05
			c-0.16,0-0.3-0.15-0.43-0.45C348.13,181.84,348.07,181.49,348.07,181.08z M352.56,188.27c-0.29-0.23-0.66-0.49-1.12-0.76
			c-0.46-0.28-0.89-0.52-1.28-0.74l1.28-2.3c0.5,0.2,0.96,0.43,1.39,0.7c0.43,0.27,0.79,0.55,1.1,0.86L352.56,188.27z"/>
		<path class="st0" d="M357.46,188.78c-0.23,0-0.56-0.09-0.98-0.28c-0.42-0.19-0.99-0.44-1.7-0.76l0.62-1.74
			c0.2,0.04,0.45,0.06,0.75,0.08c0.3,0.02,0.54,0.03,0.72,0.05c0.32-0.04,0.68-0.19,1.07-0.45c0.39-0.27,0.77-0.6,1.14-1
			c0.36-0.4,0.69-0.84,0.96-1.32c0.28-0.48,0.45-0.96,0.52-1.44c-0.05-0.36-0.14-0.75-0.27-1.19c-0.12-0.44-0.27-0.88-0.43-1.34
			c-0.16-0.45-0.34-0.91-0.52-1.36c-0.19-0.45-0.37-0.89-0.55-1.3l2.09-1.71c0.64,1.55,1.08,2.83,1.32,3.85
			c0.24,1.02,0.36,1.84,0.36,2.46c0,1.11-0.18,2.12-0.55,3.04c-0.37,0.92-0.81,1.7-1.34,2.35c-0.53,0.65-1.08,1.16-1.67,1.52
			C358.42,188.6,357.9,188.78,357.46,188.78z"/>
		<path class="st0" d="M364.65,169.28c-0.05-0.46-0.12-0.9-0.19-1.32c-0.07-0.42-0.16-0.77-0.27-1.06l2.03-1.98
			c0.21,0.37,0.38,0.95,0.49,1.72c0.12,0.78,0.21,1.65,0.27,2.63c0.06,0.98,0.1,2,0.12,3.06c0.02,1.06,0.03,2.06,0.03,3.01
			c0,0.85,0,1.61,0,2.26c0,0.65,0,1.25-0.01,1.79c-0.01,0.54-0.04,1.07-0.08,1.58c-0.04,0.51-0.12,1.04-0.23,1.59l-1.63,0.4
			c-0.02-1.46-0.04-2.91-0.08-4.33s-0.08-2.75-0.12-3.99c-0.04-1.23-0.1-2.31-0.16-3.25C364.76,170.47,364.7,169.77,364.65,169.28z"
			/>
		<path class="st0" d="M373.39,173.7c0.82,0,1.52,0.26,2.1,0.79c0.58,0.53,1.05,1.18,1.42,1.95c0.37,0.78,0.63,1.61,0.8,2.5
			c0.17,0.89,0.25,1.71,0.25,2.46c0,1.07-0.2,2.06-0.6,2.95c-0.4,0.9-0.89,1.68-1.47,2.33c-0.58,0.65-1.19,1.16-1.85,1.54
			c-0.65,0.37-1.23,0.56-1.73,0.56c-0.11,0-0.29-0.04-0.55-0.12c-0.26-0.08-0.55-0.18-0.87-0.3s-0.67-0.25-1.04-0.41
			c-0.37-0.16-0.73-0.32-1.07-0.48l0.53-1.76c0.43,0.09,0.89,0.16,1.39,0.2c0.5,0.04,0.9,0.08,1.2,0.09
			c0.37-0.02,0.79-0.14,1.24-0.37c0.45-0.23,0.89-0.53,1.31-0.88c0.42-0.36,0.79-0.76,1.12-1.22c0.33-0.45,0.58-0.92,0.74-1.4
			c0-0.02,0-0.03-0.01-0.05c-0.01-0.02-0.01-0.04-0.01-0.08c-0.46,0.2-0.99,0.35-1.59,0.45c-0.6,0.11-1.23,0.16-1.89,0.16
			c-0.98,0-1.74-0.22-2.29-0.65s-0.82-1.07-0.82-1.91c0-0.39,0.04-0.81,0.13-1.26c0.09-0.44,0.2-0.92,0.35-1.42
			c0.28-1.12,0.7-2.01,1.23-2.67C371.98,174.03,372.63,173.7,373.39,173.7z M373.15,179.63c0.37,0,0.79-0.02,1.24-0.07
			c0.45-0.04,0.9-0.11,1.32-0.2c-0.3-0.86-0.67-1.56-1.11-2.11c-0.44-0.55-0.92-0.83-1.46-0.83c-0.28,0-0.53,0.08-0.74,0.25
			c-0.21,0.17-0.37,0.38-0.5,0.63c-0.12,0.25-0.21,0.51-0.27,0.78c-0.05,0.27-0.08,0.5-0.08,0.7c0,0.25,0.12,0.45,0.35,0.62
			C372.15,179.55,372.57,179.63,373.15,179.63z"/>
		<path class="st0" d="M386.92,182.6c-0.34,0-0.66-0.04-0.95-0.11c-0.29-0.07-0.57-0.2-0.82-0.4c-0.09,0.98-0.32,1.88-0.7,2.7
			c-0.37,0.82-0.82,1.52-1.32,2.11c-0.51,0.59-1.03,1.05-1.58,1.38c-0.54,0.33-1.03,0.49-1.46,0.49c-0.23,0-0.56-0.09-0.98-0.28
			c-0.42-0.19-0.99-0.44-1.7-0.76l0.62-1.74c0.2,0.04,0.45,0.06,0.75,0.08c0.3,0.02,0.54,0.03,0.72,0.05
			c0.32-0.04,0.68-0.19,1.07-0.45c0.39-0.27,0.77-0.6,1.14-1c0.36-0.4,0.69-0.84,0.96-1.32c0.28-0.48,0.45-0.96,0.52-1.44
			c-0.05-0.36-0.14-0.75-0.27-1.19c-0.12-0.44-0.27-0.88-0.43-1.34c-0.16-0.45-0.34-0.91-0.52-1.36c-0.19-0.45-0.37-0.89-0.55-1.3
			l2.09-1.71l1.07,2.91c0.23,0.66,0.52,1.09,0.87,1.28c0.35,0.2,0.84,0.3,1.48,0.32H387v3.08H386.92z"/>
		<path class="st0" d="M386.39,181.08c0-0.43,0.06-0.79,0.19-1.1c0.13-0.3,0.27-0.45,0.43-0.45h0.05c0.82,0,1.48-0.15,1.99-0.44
			c0.51-0.3,0.99-0.73,1.46-1.3c0.37-0.48,0.73-0.96,1.06-1.43c0.33-0.47,0.66-0.9,0.99-1.27c0.33-0.37,0.68-0.68,1.06-0.91
			c0.37-0.23,0.8-0.35,1.28-0.35c0.5,0,0.96,0.16,1.38,0.47c0.42,0.31,0.77,0.74,1.06,1.27c0.28,0.54,0.51,1.16,0.67,1.89
			c0.16,0.72,0.24,1.49,0.24,2.31c0,0.3-0.08,0.63-0.24,0.99c-0.16,0.36-0.36,0.69-0.59,1c-0.23,0.31-0.47,0.58-0.72,0.79
			c-0.25,0.21-0.45,0.32-0.62,0.32c-0.34,0-0.78-0.04-1.34-0.12c-0.55-0.08-1.11-0.21-1.66-0.4c-0.55-0.19-1.04-0.45-1.47-0.78
			c-0.43-0.33-0.69-0.74-0.78-1.24c-0.52,0.75-1.08,1.32-1.67,1.7c-0.6,0.38-1.3,0.57-2.1,0.57H387c-0.16,0-0.3-0.15-0.43-0.45
			C386.45,181.84,386.39,181.49,386.39,181.08z M394.44,176.42c-0.23,0-0.47,0.09-0.71,0.27c-0.24,0.18-0.45,0.38-0.64,0.6
			c-0.19,0.22-0.34,0.45-0.47,0.67c-0.13,0.22-0.19,0.38-0.19,0.47c0,0.29,0.14,0.53,0.43,0.72c0.28,0.2,0.63,0.35,1.03,0.47
			c0.4,0.12,0.83,0.21,1.28,0.27c0.45,0.06,0.85,0.09,1.19,0.09c-0.04-0.39-0.1-0.8-0.19-1.22c-0.09-0.42-0.21-0.8-0.37-1.15
			c-0.16-0.35-0.35-0.63-0.57-0.85C395,176.54,394.74,176.42,394.44,176.42z"/>
		<path class="st0" d="M409.55,186.64c-1.34,0-2.43-0.18-3.26-0.53c-0.84-0.36-1.45-0.78-1.85-1.26c-0.36-0.43-0.61-0.95-0.75-1.58
			c-0.14-0.62-0.21-1.33-0.21-2.11c0-1.02,0.13-2.05,0.4-3.1c0.27-1.05,0.61-2.06,1.02-3.02l1.58,0.59c-0.3,0.87-0.53,1.72-0.7,2.54
			c-0.16,0.82-0.24,1.52-0.24,2.09c0,0.52,0.04,0.95,0.13,1.3c0.09,0.35,0.21,0.63,0.35,0.84c0.2,0.32,0.65,0.59,1.35,0.81
			c0.7,0.22,1.52,0.33,2.45,0.33c0.54,0,1.09-0.03,1.66-0.08c0.57-0.05,1.14-0.14,1.7-0.27c0.56-0.12,1.09-0.28,1.59-0.47
			c0.5-0.19,0.94-0.41,1.34-0.68c-0.11-0.14-0.24-0.27-0.4-0.37c-0.16-0.11-0.38-0.21-0.65-0.32c-0.28-0.11-0.64-0.22-1.08-0.33
			c-0.45-0.12-1-0.26-1.66-0.44c-0.46-0.13-0.83-0.27-1.1-0.43c-0.27-0.16-0.47-0.34-0.61-0.54c-0.14-0.2-0.24-0.4-0.28-0.6
			c-0.04-0.2-0.07-0.41-0.07-0.63c0-0.73,0.16-1.49,0.5-2.29c0.33-0.79,0.76-1.52,1.28-2.18c0.53-0.66,1.11-1.2,1.74-1.63
			s1.25-0.64,1.86-0.64c0.46,0,0.93,0.16,1.4,0.47c0.47,0.31,0.97,0.75,1.48,1.32l-1.42,1.9c-0.3-0.25-0.6-0.45-0.88-0.6
			c-0.29-0.15-0.55-0.23-0.8-0.23c-0.21,0-0.46,0.05-0.75,0.16c-0.28,0.11-0.57,0.28-0.87,0.52c-0.29,0.24-0.58,0.55-0.85,0.92
			c-0.28,0.37-0.52,0.83-0.74,1.36c0.16,0.27,0.6,0.49,1.32,0.67c0.72,0.18,1.64,0.42,2.74,0.72c0.77,0.23,1.28,0.54,1.54,0.94
			c0.26,0.39,0.39,0.87,0.39,1.44c0,0.23-0.04,0.49-0.11,0.79c-0.07,0.29-0.16,0.58-0.27,0.87c-0.11,0.28-0.22,0.54-0.33,0.76
			c-0.12,0.22-0.21,0.37-0.28,0.44c-0.36,0.36-0.81,0.69-1.36,1c-0.55,0.31-1.17,0.58-1.85,0.8c-0.68,0.22-1.4,0.4-2.15,0.54
			C411.07,186.57,410.31,186.64,409.55,186.64z"/>
		<path class="st0" d="M420.54,169.28c-0.05-0.46-0.12-0.9-0.19-1.32c-0.07-0.42-0.16-0.77-0.27-1.06l2.03-1.98
			c0.21,0.37,0.38,0.95,0.49,1.72c0.12,0.78,0.21,1.65,0.27,2.63c0.06,0.98,0.1,2,0.12,3.06c0.02,1.06,0.03,2.06,0.03,3.01
			c0,0.85,0,1.61,0,2.26c0,0.65,0,1.25-0.01,1.79c-0.01,0.54-0.04,1.07-0.08,1.58c-0.04,0.51-0.12,1.04-0.23,1.59l-1.63,0.4
			c-0.02-1.46-0.04-2.91-0.08-4.33s-0.08-2.75-0.12-3.99c-0.04-1.23-0.1-2.31-0.16-3.25C420.65,170.47,420.59,169.77,420.54,169.28z
			"/>
		<path class="st0" d="M438.8,182.6c-1.05,0-1.89-0.2-2.51-0.6c-0.62-0.4-1.08-1-1.36-1.8c-0.21,0.43-0.43,0.72-0.64,0.88
			c-0.45,0.34-1.33,0.51-2.65,0.51c-1.02,0-1.8-0.2-2.35-0.62c-0.55-0.41-0.83-1.07-0.83-1.98c0-0.61,0.08-1.15,0.23-1.65
			c0.15-0.49,0.35-0.88,0.6-1.16c0.3-0.39,0.82-0.87,1.56-1.43c0.74-0.56,1.61-1.29,2.61-2.18l-0.32-1.76l2-1.74l1.5,8.77
			c0.05,0.27,0.12,0.51,0.2,0.72c0.08,0.21,0.21,0.39,0.39,0.53c0.18,0.14,0.41,0.25,0.71,0.32c0.29,0.07,0.67,0.11,1.14,0.11v3.08
			H438.8z M430.43,177.65c0,0.39,0.13,0.64,0.4,0.75c0.27,0.11,0.69,0.16,1.26,0.16c0.86,0,1.67-0.07,2.43-0.21l-0.64-3.53
			c-1,0.84-1.78,1.46-2.35,1.87C430.96,177.1,430.59,177.42,430.43,177.65z"/>
		<path class="st0" d="M439.07,182.6c-0.16,0-0.3-0.15-0.43-0.45c-0.12-0.3-0.19-0.66-0.19-1.07c0-0.43,0.06-0.79,0.19-1.1
			c0.13-0.3,0.27-0.45,0.43-0.45h2.67v3.08H439.07z"/>
		<path class="st0" d="M441.74,182.6c-0.16,0-0.3-0.15-0.43-0.45c-0.12-0.3-0.19-0.66-0.19-1.07c0-0.43,0.06-0.79,0.19-1.1
			c0.13-0.3,0.27-0.45,0.43-0.45h2.67v3.08H441.74z"/>
		<path class="st0" d="M444.41,182.6c-0.16,0-0.3-0.15-0.43-0.45c-0.12-0.3-0.19-0.66-0.19-1.07c0-0.43,0.06-0.79,0.19-1.1
			c0.13-0.3,0.27-0.45,0.43-0.45h2.67v3.08H444.41z"/>
		<path class="st0" d="M447.09,182.6c-0.16,0-0.3-0.15-0.43-0.45c-0.12-0.3-0.19-0.66-0.19-1.07c0-0.43,0.06-0.79,0.19-1.1
			c0.13-0.3,0.27-0.45,0.43-0.45h2.67v3.08H447.09z"/>
		<path class="st0" d="M449.76,182.6c-0.16,0-0.3-0.15-0.43-0.45c-0.12-0.3-0.19-0.66-0.19-1.07c0-0.43,0.06-0.79,0.19-1.1
			c0.13-0.3,0.27-0.45,0.43-0.45h2.67v3.08H449.76z"/>
		<path class="st0" d="M452.44,182.6c-0.16,0-0.3-0.15-0.43-0.45c-0.12-0.3-0.19-0.66-0.19-1.07c0-0.43,0.06-0.79,0.19-1.1
			c0.13-0.3,0.27-0.45,0.43-0.45h2.67v3.08H452.44z"/>
		<path class="st0" d="M455.11,182.6c-0.16,0-0.3-0.15-0.43-0.45c-0.12-0.3-0.19-0.66-0.19-1.07c0-0.43,0.06-0.79,0.19-1.1
			c0.13-0.3,0.27-0.45,0.43-0.45h2.67v3.08H455.11z"/>
		<path class="st0" d="M470.14,182.36c-0.52-0.16-0.99-0.39-1.42-0.7c-0.43-0.3-0.84-0.68-1.23-1.14c-0.39-0.45-0.81-0.97-1.26-1.54
			c-0.14,0.48-0.35,0.94-0.63,1.38c-0.28,0.44-0.51,0.74-0.71,0.92c-0.32,0.28-0.74,0.51-1.27,0.68c-0.53,0.17-1.09,0.3-1.7,0.4
			c-0.61,0.1-1.23,0.16-1.86,0.19c-0.63,0.03-1.22,0.04-1.75,0.04h-0.54c-0.16,0-0.3-0.15-0.43-0.45c-0.12-0.3-0.19-0.66-0.19-1.07
			c0-0.43,0.06-0.79,0.19-1.1c0.13-0.3,0.27-0.45,0.43-0.45h0.7c0.39,0,0.85,0,1.36-0.01c0.52-0.01,1.05-0.04,1.6-0.09
			c0.55-0.05,1.09-0.13,1.62-0.23c0.53-0.1,0.98-0.24,1.38-0.41c-0.3-1.09-0.97-2.21-2.01-3.37c-1.03-1.16-2.45-2.38-4.25-3.66
			c0.04-0.57,0.09-1.08,0.16-1.54c0.07-0.45,0.18-0.85,0.34-1.19c0.15-0.34,0.36-0.62,0.61-0.86c0.26-0.23,0.59-0.41,1-0.53
			l8.21-2.49l-0.61,2.81l-7.33,2.27c0.64,0.46,1.31,1.01,1.99,1.63c0.69,0.62,1.35,1.26,1.99,1.91c0.64,0.65,1.24,1.29,1.8,1.91
			c0.56,0.62,1.06,1.18,1.48,1.66c0.39,0.45,0.74,0.81,1.06,1.1c0.31,0.29,0.62,0.51,0.94,0.67c0.31,0.16,0.64,0.27,0.98,0.34
			c0.34,0.06,0.72,0.09,1.15,0.09v3.08C471.26,182.6,470.66,182.52,470.14,182.36z"/>
		<path class="st0" d="M480.65,182.6c-0.84,0-1.6-0.12-2.29-0.35c-0.69-0.23-1.22-0.71-1.59-1.44c-0.25,0.43-0.45,0.7-0.59,0.83
			c-0.34,0.3-0.9,0.54-1.69,0.71c-0.78,0.17-1.63,0.25-2.54,0.25c-0.16,0-0.3-0.15-0.43-0.45c-0.12-0.3-0.19-0.66-0.19-1.07
			c0-0.43,0.06-0.79,0.19-1.1c0.13-0.3,0.27-0.45,0.43-0.45h0.35c0.45,0,0.99-0.03,1.63-0.09c0.64-0.06,1.23-0.22,1.76-0.47
			c-0.04-0.52-0.08-1.13-0.13-1.85c-0.05-0.71-0.13-1.39-0.21-2.03l2.25-1.2l0.37,3.56c0.05,0.48,0.16,0.86,0.33,1.14
			c0.17,0.28,0.39,0.49,0.65,0.63c0.27,0.14,0.57,0.23,0.9,0.27c0.33,0.04,0.68,0.05,1.06,0.05v3.08H480.65z M476.66,188.3
			c-0.27-0.23-0.63-0.49-1.1-0.76c-0.46-0.28-0.9-0.53-1.31-0.76l1.31-2.3c0.5,0.2,0.96,0.43,1.39,0.71
			c0.43,0.28,0.79,0.56,1.1,0.84L476.66,188.3z"/>
		<path class="st0" d="M494.66,179.53c0.32,0,0.67-0.02,1.04-0.05c0.37-0.03,0.7-0.1,0.99-0.19c-0.11-0.8-0.28-1.65-0.52-2.55
			c-0.24-0.9-0.54-1.76-0.9-2.58l2.11-1.79c0.27,0.62,0.49,1.24,0.67,1.85c0.18,0.61,0.32,1.18,0.43,1.72
			c0.11,0.54,0.18,1.04,0.21,1.48c0.04,0.45,0.05,0.82,0.05,1.12c0,0.25-0.04,0.54-0.13,0.86s-0.2,0.64-0.35,0.96
			s-0.3,0.61-0.47,0.88c-0.17,0.27-0.33,0.46-0.47,0.59c-0.27,0.21-0.64,0.4-1.11,0.55c-0.47,0.15-1.07,0.23-1.78,0.23
			c-0.52,0-1.04-0.09-1.56-0.28c-0.53-0.19-0.99-0.57-1.38-1.14c-0.34,0.52-0.75,0.88-1.24,1.1c-0.49,0.21-1.1,0.32-1.83,0.32
			c-0.78,0-1.43-0.13-1.94-0.39c-0.51-0.26-0.91-0.69-1.19-1.3c-0.41,0.64-0.91,1.08-1.5,1.32c-0.59,0.24-1.29,0.36-2.11,0.36h-0.78
			c-0.16,0-0.3-0.15-0.43-0.45c-0.12-0.3-0.19-0.66-0.19-1.07c0-0.43,0.06-0.79,0.19-1.1c0.13-0.3,0.27-0.45,0.43-0.45h0.99
			c0.86,0,1.48-0.15,1.89-0.44c0.4-0.3,0.66-0.7,0.79-1.22l0.61-2.46l1.85,0.11c-0.07,0.54-0.13,1.01-0.19,1.42
			c-0.05,0.41-0.08,0.75-0.08,1.02c0,0.52,0.14,0.91,0.43,1.18c0.28,0.27,0.74,0.4,1.36,0.4c0.77,0,1.3-0.12,1.6-0.37
			c0.3-0.25,0.5-0.6,0.59-1.04l0.45-2.65l1.85,0.05l-0.21,3.18C493.18,179.25,493.79,179.53,494.66,179.53z M489.71,173.35
			c-0.28-0.23-0.65-0.49-1.11-0.76c-0.45-0.28-0.89-0.52-1.3-0.74l1.31-2.3c0.48,0.2,0.94,0.43,1.36,0.7
			c0.43,0.27,0.79,0.55,1.1,0.86L489.71,173.35z M490.97,169.79c-0.3-0.21-0.65-0.45-1.04-0.7c-0.39-0.25-0.78-0.48-1.15-0.7
			c0.21-0.36,0.4-0.7,0.57-1.02c0.17-0.32,0.36-0.66,0.58-1.02c0.46,0.2,0.89,0.41,1.27,0.65c0.38,0.24,0.71,0.5,0.98,0.79
			L490.97,169.79z M493.29,173.27c-0.28-0.23-0.66-0.49-1.12-0.76c-0.46-0.28-0.89-0.52-1.28-0.74l1.28-2.3
			c0.5,0.2,0.96,0.43,1.39,0.7c0.43,0.27,0.79,0.55,1.1,0.85L493.29,173.27z"/>
		<path class="st0" d="M516.29,182.6c0.7,0.37,1.04,0.87,1.04,1.5c0,0.16-0.03,0.35-0.09,0.57c-0.06,0.22-0.14,0.44-0.23,0.66
			c-0.09,0.21-0.17,0.4-0.25,0.57c-0.08,0.17-0.15,0.28-0.2,0.33c-0.27,0.3-0.62,0.59-1.07,0.87c-0.45,0.28-0.95,0.52-1.51,0.72
			c-0.56,0.2-1.17,0.37-1.83,0.48c-0.66,0.12-1.34,0.17-2.03,0.17c-1.34,0-2.43-0.18-3.26-0.53c-0.84-0.36-1.45-0.77-1.85-1.23
			c-0.36-0.45-0.61-0.98-0.75-1.6c-0.14-0.62-0.21-1.33-0.21-2.11c0-1.02,0.13-2.05,0.4-3.1c0.27-1.05,0.61-2.05,1.02-3l1.58,0.56
			c-0.3,0.89-0.53,1.74-0.7,2.55c-0.16,0.81-0.24,1.5-0.24,2.07c0,0.52,0.04,0.95,0.13,1.3s0.21,0.63,0.35,0.84
			c0.2,0.32,0.65,0.6,1.35,0.83c0.7,0.23,1.52,0.35,2.45,0.35c0.73,0,1.56-0.08,2.47-0.24c0.92-0.16,1.74-0.45,2.47-0.88
			c-0.25-0.34-0.72-0.68-1.42-1.02c-0.7-0.34-1.6-0.63-2.73-0.88l0.7-2.06c0.11-0.3,0.25-0.51,0.44-0.63
			c0.19-0.12,0.47-0.17,0.84-0.17h4.17v3.08H516.29z"/>
		<path class="st0" d="M517.33,182.6c-0.16,0-0.3-0.15-0.43-0.45c-0.12-0.3-0.19-0.66-0.19-1.07c0-0.43,0.06-0.79,0.19-1.1
			c0.13-0.3,0.27-0.45,0.43-0.45h2.67v3.08H517.33z"/>
		<path class="st0" d="M520.01,182.6c-0.16,0-0.3-0.15-0.43-0.45c-0.12-0.3-0.19-0.66-0.19-1.07c0-0.43,0.06-0.79,0.19-1.1
			c0.13-0.3,0.27-0.45,0.43-0.45h2.67v3.08H520.01z"/>
		<path class="st0" d="M522.07,181.08c0-0.43,0.06-0.79,0.19-1.1c0.13-0.3,0.27-0.45,0.43-0.45h0.35c0.18,0,0.41-0.01,0.71-0.03
			c0.29-0.02,0.61-0.05,0.96-0.09c0.35-0.04,0.7-0.11,1.06-0.2c0.36-0.09,0.69-0.2,0.99-0.35c-0.13-0.84-0.33-1.69-0.63-2.57
			c-0.3-0.87-0.59-1.59-0.9-2.14l2.11-1.79c0.23,0.46,0.44,0.95,0.62,1.46c0.18,0.51,0.33,1.02,0.45,1.52
			c0.12,0.51,0.22,1,0.28,1.47c0.06,0.47,0.09,0.9,0.09,1.3c0,0.23-0.06,0.52-0.17,0.86c-0.12,0.34-0.25,0.67-0.41,1
			c-0.16,0.33-0.33,0.63-0.51,0.91c-0.18,0.28-0.33,0.48-0.45,0.6c-0.21,0.2-0.48,0.36-0.8,0.5c-0.32,0.13-0.68,0.25-1.08,0.35
			s-0.82,0.17-1.27,0.21c-0.45,0.04-0.89,0.07-1.34,0.07h-0.05c-0.16,0-0.3-0.15-0.43-0.45
			C522.13,181.84,522.07,181.49,522.07,181.08z M524.77,188.3c-0.27-0.23-0.63-0.49-1.1-0.76c-0.46-0.28-0.9-0.53-1.31-0.76
			l1.31-2.3c0.5,0.2,0.96,0.43,1.39,0.71c0.43,0.28,0.79,0.56,1.1,0.84L524.77,188.3z"/>
		<path class="st0" d="M535.36,182.6c-0.78,0-1.44-0.11-1.98-0.33c-0.53-0.22-0.97-0.54-1.3-0.95c-0.33-0.41-0.57-0.89-0.71-1.44
			c-0.14-0.55-0.21-1.17-0.21-1.85c0-1.19,0-2.24-0.01-3.13c-0.01-0.89-0.03-1.67-0.05-2.34c-0.03-0.67-0.06-1.26-0.09-1.78
			c-0.04-0.52-0.08-1.02-0.13-1.5c-0.05-0.46-0.12-0.9-0.19-1.32c-0.07-0.42-0.16-0.77-0.27-1.06l2.03-1.98
			c0.21,0.37,0.37,0.85,0.45,1.43c0.09,0.58,0.15,1.2,0.19,1.86c0.07,1.28,0.12,2.64,0.13,4.08c0.02,1.43,0.03,3.1,0.03,4.99
			c0,0.71,0.17,1.27,0.51,1.66c0.34,0.39,0.94,0.59,1.79,0.59h0.4v3.08H535.36z"/>
		<path class="st0" d="M535.95,182.6c-0.16,0-0.3-0.15-0.43-0.45c-0.12-0.3-0.19-0.66-0.19-1.07c0-0.43,0.06-0.79,0.19-1.1
			c0.13-0.3,0.27-0.45,0.43-0.45h2.67v3.08H535.95z"/>
		<path class="st0" d="M538.62,182.6c-0.16,0-0.3-0.15-0.43-0.45c-0.12-0.3-0.19-0.66-0.19-1.07c0-0.43,0.06-0.79,0.19-1.1
			c0.13-0.3,0.27-0.45,0.43-0.45h2.67v3.08H538.62z"/>
		<path class="st0" d="M541.29,182.6c-0.16,0-0.3-0.15-0.43-0.45c-0.12-0.3-0.19-0.66-0.19-1.07c0-0.43,0.06-0.79,0.19-1.1
			c0.13-0.3,0.27-0.45,0.43-0.45h2.67v3.08H541.29z"/>
		<path class="st0" d="M543.97,182.6c-0.16,0-0.3-0.15-0.43-0.45c-0.12-0.3-0.19-0.66-0.19-1.07c0-0.43,0.06-0.79,0.19-1.1
			c0.13-0.3,0.27-0.45,0.43-0.45h2.67v3.08H543.97z"/>
		<path class="st0" d="M546.64,182.6c-0.16,0-0.3-0.15-0.43-0.45c-0.12-0.3-0.19-0.66-0.19-1.07c0-0.43,0.06-0.79,0.19-1.1
			c0.13-0.3,0.27-0.45,0.43-0.45h2.67v3.08H546.64z"/>
		<path class="st0" d="M549.61,188.35c-0.28-0.21-0.65-0.46-1.11-0.75c-0.45-0.28-0.89-0.53-1.3-0.75l1.31-2.3
			c0.48,0.2,0.94,0.43,1.36,0.7c0.43,0.27,0.79,0.55,1.1,0.86L549.61,188.35z M548.7,181.08c0-0.43,0.06-0.79,0.19-1.1
			c0.13-0.3,0.27-0.45,0.43-0.45h0.35c0.18,0,0.41-0.01,0.71-0.03c0.29-0.02,0.61-0.05,0.96-0.09c0.35-0.04,0.7-0.11,1.06-0.2
			c0.36-0.09,0.69-0.2,0.99-0.35c-0.13-0.84-0.33-1.69-0.63-2.57c-0.3-0.87-0.59-1.59-0.9-2.14l2.11-1.79
			c0.23,0.46,0.44,0.95,0.62,1.46c0.18,0.51,0.33,1.02,0.45,1.52c0.12,0.51,0.22,1,0.28,1.47c0.06,0.47,0.09,0.9,0.09,1.3
			c0,0.23-0.06,0.52-0.17,0.86s-0.25,0.67-0.41,1c-0.16,0.33-0.33,0.63-0.51,0.91c-0.18,0.28-0.33,0.48-0.45,0.6
			c-0.21,0.2-0.48,0.36-0.8,0.5c-0.32,0.13-0.68,0.25-1.08,0.35c-0.4,0.1-0.82,0.17-1.27,0.21c-0.45,0.04-0.89,0.07-1.34,0.07h-0.05
			c-0.16,0-0.3-0.15-0.43-0.45C548.76,181.84,548.7,181.49,548.7,181.08z M553.19,188.27c-0.29-0.23-0.66-0.49-1.12-0.76
			c-0.46-0.28-0.89-0.52-1.28-0.74l1.28-2.3c0.5,0.2,0.96,0.43,1.39,0.7c0.43,0.27,0.79,0.55,1.1,0.86L553.19,188.27z"/>
		<path class="st0" d="M558.08,188.78c-0.23,0-0.56-0.09-0.98-0.28c-0.42-0.19-0.99-0.44-1.7-0.76l0.62-1.74
			c0.2,0.04,0.45,0.06,0.75,0.08c0.3,0.02,0.54,0.03,0.72,0.05c0.32-0.04,0.68-0.19,1.07-0.45c0.39-0.27,0.77-0.6,1.14-1
			c0.36-0.4,0.69-0.84,0.96-1.32c0.28-0.48,0.45-0.96,0.52-1.44c-0.05-0.36-0.14-0.75-0.27-1.19c-0.12-0.44-0.27-0.88-0.43-1.34
			c-0.16-0.45-0.34-0.91-0.52-1.36c-0.19-0.45-0.37-0.89-0.55-1.3l2.09-1.71c0.64,1.55,1.08,2.83,1.32,3.85
			c0.24,1.02,0.36,1.84,0.36,2.46c0,1.11-0.18,2.12-0.55,3.04c-0.37,0.92-0.81,1.7-1.34,2.35c-0.53,0.65-1.08,1.16-1.67,1.52
			C559.05,188.6,558.53,188.78,558.08,188.78z"/>
		<path class="st0" d="M565.28,169.28c-0.05-0.46-0.12-0.9-0.19-1.32c-0.07-0.42-0.16-0.77-0.27-1.06l2.03-1.98
			c0.21,0.37,0.38,0.95,0.49,1.72c0.12,0.78,0.21,1.65,0.27,2.63c0.06,0.98,0.1,2,0.12,3.06c0.02,1.06,0.03,2.06,0.03,3.01
			c0,0.85,0,1.61,0,2.26c0,0.65,0,1.25-0.01,1.79c-0.01,0.54-0.04,1.07-0.08,1.58c-0.04,0.51-0.12,1.04-0.23,1.59l-1.63,0.4
			c-0.02-1.46-0.04-2.91-0.08-4.33s-0.08-2.75-0.12-3.99c-0.04-1.23-0.1-2.31-0.16-3.25C565.39,170.47,565.33,169.77,565.28,169.28z
			"/>
		<path class="st0" d="M568.57,188.78c-0.11,0-0.29-0.04-0.55-0.12c-0.26-0.08-0.55-0.18-0.87-0.3s-0.66-0.25-1.03-0.41
			c-0.37-0.16-0.72-0.32-1.06-0.48l0.51-1.76c0.45,0.09,0.91,0.16,1.4,0.2c0.49,0.04,0.89,0.08,1.19,0.09
			c0.36-0.02,0.76-0.16,1.22-0.41c0.45-0.26,0.89-0.58,1.31-0.96c0.42-0.38,0.79-0.82,1.11-1.3c0.32-0.48,0.54-0.95,0.64-1.42
			c-0.05-0.36-0.14-0.75-0.27-1.19c-0.12-0.44-0.27-0.88-0.43-1.34c-0.16-0.45-0.34-0.91-0.52-1.36c-0.19-0.45-0.37-0.89-0.55-1.3
			l2.09-1.71c0.64,1.55,1.08,2.83,1.32,3.85c0.24,1.02,0.36,1.84,0.36,2.46c0,1.11-0.21,2.12-0.64,3.04s-0.95,1.7-1.56,2.35
			c-0.61,0.65-1.26,1.16-1.94,1.52C569.63,188.6,569.05,188.78,568.57,188.78z M572.15,173.83c-0.28-0.23-0.65-0.49-1.11-0.76
			c-0.45-0.28-0.89-0.53-1.3-0.76l1.31-2.3c0.5,0.2,0.96,0.43,1.39,0.71c0.43,0.28,0.79,0.57,1.1,0.87L572.15,173.83z"/>
		<path class="st0" d="M581.03,182.6c-0.78,0-1.44-0.11-1.98-0.33c-0.53-0.22-0.97-0.54-1.3-0.95c-0.33-0.41-0.57-0.89-0.71-1.44
			c-0.14-0.55-0.21-1.17-0.21-1.85c0-1.19,0-2.24-0.01-3.13c-0.01-0.89-0.03-1.67-0.05-2.34c-0.03-0.67-0.06-1.26-0.09-1.78
			c-0.04-0.52-0.08-1.02-0.13-1.5c-0.05-0.46-0.12-0.9-0.19-1.32c-0.07-0.42-0.16-0.77-0.27-1.06l2.03-1.98
			c0.21,0.37,0.37,0.85,0.45,1.43c0.09,0.58,0.15,1.2,0.19,1.86c0.07,1.28,0.12,2.64,0.13,4.08c0.02,1.43,0.03,3.1,0.03,4.99
			c0,0.71,0.17,1.27,0.51,1.66c0.34,0.39,0.94,0.59,1.79,0.59h0.4v3.08H581.03z"/>
		<path class="st0" d="M581.62,182.6c-0.16,0-0.3-0.15-0.43-0.45c-0.12-0.3-0.19-0.66-0.19-1.07c0-0.43,0.06-0.79,0.19-1.1
			c0.13-0.3,0.27-0.45,0.43-0.45h2.67v3.08H581.62z"/>
		<path class="st0" d="M584.29,182.6c-0.16,0-0.3-0.15-0.43-0.45c-0.12-0.3-0.19-0.66-0.19-1.07c0-0.43,0.06-0.79,0.19-1.1
			c0.13-0.3,0.27-0.45,0.43-0.45h2.67v3.08H584.29z"/>
		<path class="st0" d="M586.96,182.6c-0.16,0-0.3-0.15-0.43-0.45c-0.12-0.3-0.19-0.66-0.19-1.07c0-0.43,0.06-0.79,0.19-1.1
			c0.13-0.3,0.27-0.45,0.43-0.45h2.67v3.08H586.96z"/>
		<path class="st0" d="M589.02,181.08c0-0.43,0.06-0.79,0.19-1.1c0.13-0.3,0.27-0.45,0.43-0.45h0.35c0.18,0,0.41-0.01,0.71-0.03
			c0.29-0.02,0.61-0.05,0.96-0.09c0.35-0.04,0.7-0.11,1.06-0.2c0.36-0.09,0.69-0.2,0.99-0.35c-0.13-0.84-0.33-1.69-0.63-2.57
			c-0.3-0.87-0.59-1.59-0.9-2.14l2.11-1.79c0.23,0.46,0.44,0.95,0.62,1.46c0.18,0.51,0.33,1.02,0.45,1.52
			c0.12,0.51,0.22,1,0.28,1.47c0.06,0.47,0.09,0.9,0.09,1.3c0,0.23-0.06,0.52-0.17,0.86c-0.12,0.34-0.25,0.67-0.41,1
			c-0.16,0.33-0.33,0.63-0.51,0.91c-0.18,0.28-0.33,0.48-0.45,0.6c-0.21,0.2-0.48,0.36-0.8,0.5c-0.32,0.13-0.68,0.25-1.08,0.35
			s-0.82,0.17-1.27,0.21c-0.45,0.04-0.89,0.07-1.34,0.07h-0.05c-0.16,0-0.3-0.15-0.43-0.45
			C589.09,181.84,589.02,181.49,589.02,181.08z M591.72,188.3c-0.27-0.23-0.63-0.49-1.1-0.76c-0.46-0.28-0.9-0.53-1.31-0.76
			l1.31-2.3c0.5,0.2,0.96,0.43,1.39,0.71c0.43,0.28,0.79,0.56,1.1,0.84L591.72,188.3z"/>
	</g>
	<polygon class="st0" points="475.61,40.65 475.72,115.96 495.92,115.96 495.79,40.65 	"/>
	<polygon class="st0" points="329.91,42.8 329.91,40.65 309.81,40.65 309.85,115.96 330.06,115.96 329.99,42.8 	"/>
	<path class="st0" d="M344.43,40.28l0.03,72.74c-0.37,2.41-1.31,4.76-2.83,7.04c-2.01,3.01-4.78,5.45-8.32,7.32
		c-3.54,1.87-7.46,2.8-11.77,2.8c-1.66,0-57.17,0.44-75.62,0.13v16.18c18.48,0.37,74.13-0.1,75.76-0.1c4.11,0,8.16-1.13,12.13-3.37
		c3.97-2.25,7.25-5.69,9.83-10.33c2.58-4.64,3.87-10.41,3.87-17.29l-0.02-75.12H344.43z"/>
	<polygon class="st0" points="361.26,40.65 361.2,115.96 381.57,115.96 381.47,40.65 	"/>
	<path class="st0" d="M458.34,56.5c-2.54-4.69-5.79-8.16-9.76-10.4c-3.97-2.25-8.01-3.37-12.13-3.37c-4.11,0-8.16,1.13-12.13,3.37
		c-3.97,2.25-7.25,5.69-9.83,10.33c-2.58,4.64-3.87,10.4-3.87,17.29v14.92h0.04v0.92h2.87v-0.02l28.15,0.31l0.01-1.41l-28.16-0.31
		v-0.33h-0.04v-9.35c0-3.25,1-6.39,3.01-9.4c2.01-3.01,4.78-5.45,8.32-7.32c3.54-1.87,7.46-2.8,11.77-2.8
		c4.21,0,8.06,0.93,11.55,2.8c3.49,1.87,6.22,4.31,8.18,7.32c1.96,3.01,2.94,6.15,2.94,9.4v8.92c0,4.64-3.76,8.39-8.39,8.39
		l-40.43-0.42c-8.33-0.07-15.12,6.66-15.12,14.99v19.47h0.03l-0.01,16.92h3.05l0.02-21.85c0.22-4.66,3.57-8.15,8-9.06h33.2
		c12.44,0,22.52-10.08,22.52-22.52V73.73C462.14,66.93,460.87,61.19,458.34,56.5z"/>
	<path class="st0" d="M229.92,146.29h3.05l0.01-21.37c0.22-4.66,3.57-8.15,8-9.06h33.2c12.44,0,22.52-10.08,22.52-22.52V73.77
		c0-6.79-1.27-12.53-3.8-17.22c-2.54-4.69-5.79-8.16-9.76-10.4c-3.97-2.25-8.01-3.37-12.13-3.37c-4.11,0-8.16,1.13-12.13,3.37
		c-3.97,2.25-7.25,5.69-9.83,10.33c-2.58,4.64-3.87,10.4-3.87,17.29v14.92h0.04v0.92h2.87v-0.02l28.15,0.31l0.01-1.41l-28.16-0.31
		v-0.33h-0.04V78.5c0-3.25,1-6.39,3.01-9.4c2.01-3.01,4.78-5.45,8.32-7.32c3.54-1.87,7.46-2.8,11.77-2.8c4.21,0,8.06,0.93,11.55,2.8
		c3.49,1.87,6.22,4.31,8.18,7.32c1.96,3.01,2.94,6.15,2.94,9.4v8.92c0,4.64-3.76,8.39-8.39,8.39l-40.43-0.42
		c-8.33-0.07-15.12,6.66-15.12,14.99v19.47h0.03L229.92,146.29z"/>
	<path class="st0" d="M572.99,53.52v56.08c-3.54,0.94-3.96-2.7-5.77-6.21l-17.08-35.66l-29.51,0.11v0.04
		c-6.04,0.23-10.88,5.2-10.88,11.3v33.27h0.02l-0.02,2.08c0.37,0.2,6.33,0.24,12.95,0.21v-0.02c3.52-0.02,6.95-0.05,9.57-0.07
		c-0.49,1.83-1.31,3.61-2.47,5.36c-2.01,3.01-4.78,5.45-8.32,7.32c-3.54,1.87-7.46,2.8-11.77,2.8c-1.44,0-56.46-0.09-75.72-0.31
		l-0.03,16.83c19.14,0.12,74.44-0.3,75.89-0.3c4.11,0,8.16-1.13,12.13-3.37c3.97-2.25,7.25-5.69,9.83-10.33
		c2.58-4.64,3.87-10.4,3.87-17.29l0-10.76c0-5.31-4.28-9.63-9.59-9.68l-3.39-0.03v-0.04l-9.9-0.1v-14.4c0-5.07,4.11-9.19,9.19-9.19
		h4.15c1.88,0,3.61,1.05,4.48,2.72l19.31,39.94l0.05,0l0.03,0.07c0,0,9.9,0,20.82,0c1.37,0,2.75,0,4.14,0c9.78,0,18.07,0,18.07,0
		V53.52H572.99z"/>
	<path class="st0" d="M552.85,130.65v3.73h13.56l-0.32,11.9c0.48,0.08,7.12,0.12,16.31,0.13v-12.03h11.21v-3.73H552.85z"/>
	
		<rect x="358.57" y="136.03" transform="matrix(0.8163 -0.5776 0.5776 0.8163 -11.2249 239.7194)" class="st0" width="25.51" height="2.97"/>
</g>
</svg>
